<?xml version="1.0" encoding="utf-8" standalone="no"?>
<!DOCTYPE svg PUBLIC "-//W3C//DTD SVG 1.1//EN"
  "http://www.w3.org/Graphics/SVG/1.1/DTD/svg11.dtd">
<svg xmlns:xlink="http://www.w3.org/1999/xlink" width="1144.43875pt" height="296.421156pt" viewBox="0 0 1144.43875 296.421156" xmlns="http://www.w3.org/2000/svg" version="1.1">
 <metadata>
  <rdf:RDF xmlns:dc="http://purl.org/dc/elements/1.1/" xmlns:cc="http://creativecommons.org/ns#" xmlns:rdf="http://www.w3.org/1999/02/22-rdf-syntax-ns#">
   <cc:Work>
    <dc:type rdf:resource="http://purl.org/dc/dcmitype/StillImage"/>
    <dc:date>2026-03-22T10:13:21.480813</dc:date>
    <dc:format>image/svg+xml</dc:format>
    <dc:creator>
     <cc:Agent>
      <dc:title>Matplotlib v3.10.8, https://matplotlib.org/</dc:title>
     </cc:Agent>
    </dc:creator>
   </cc:Work>
  </rdf:RDF>
 </metadata>
 <defs>
  <style type="text/css">*{stroke-linejoin: round; stroke-linecap: butt}</style>
 </defs>
 <g id="figure_1">
  <g id="patch_1">
   <path d="M 0 296.421156 
L 1144.43875 296.421156 
L 1144.43875 0 
L 0 0 
z
" style="fill: #ffffff"/>
  </g>
  <g id="axes_1">
   <g id="patch_2">
    <path d="M 43.15875 267.608 
L 305.95375 267.608 
L 305.95375 62.16 
L 43.15875 62.16 
z
" style="fill: #ffffff"/>
   </g>
   <g id="patch_3">
    <path d="M 55.103977 267.608 
L 70.913837 267.608 
L 70.913837 243.863101 
L 55.103977 243.863101 
z
" clip-path="url(#p2366828dd3)" style="fill: #888888; stroke: #ffffff; stroke-linejoin: miter"/>
   </g>
   <g id="patch_4">
    <path d="M 142.936531 267.608 
L 158.74639 267.608 
L 158.74639 261.853868 
L 142.936531 261.853868 
z
" clip-path="url(#p2366828dd3)" style="fill: #888888; stroke: #ffffff; stroke-linejoin: miter"/>
   </g>
   <g id="patch_5">
    <path d="M 230.769084 267.608 
L 246.578944 267.608 
L 246.578944 244.300124 
L 230.769084 244.300124 
z
" clip-path="url(#p2366828dd3)" style="fill: #888888; stroke: #ffffff; stroke-linejoin: miter"/>
   </g>
   <g id="patch_6">
    <path d="M 70.913837 267.608 
L 86.723697 267.608 
L 86.723697 185.981876 
L 70.913837 185.981876 
z
" clip-path="url(#p2366828dd3)" style="fill: #1f77b4; stroke: #ffffff; stroke-linejoin: miter"/>
   </g>
   <g id="patch_7">
    <path d="M 158.74639 267.608 
L 174.55625 267.608 
L 174.55625 248.888862 
L 158.74639 248.888862 
z
" clip-path="url(#p2366828dd3)" style="fill: #1f77b4; stroke: #ffffff; stroke-linejoin: miter"/>
   </g>
   <g id="patch_8">
    <path d="M 246.578944 267.608 
L 262.388803 267.608 
L 262.388803 241.435198 
L 246.578944 241.435198 
z
" clip-path="url(#p2366828dd3)" style="fill: #1f77b4; stroke: #ffffff; stroke-linejoin: miter"/>
   </g>
   <g id="patch_9">
    <path d="M 86.723697 267.608 
L 102.533556 267.608 
L 102.533556 185.811923 
L 86.723697 185.811923 
z
" clip-path="url(#p2366828dd3)" style="fill: #76b900; stroke: #ffffff; stroke-linejoin: miter"/>
   </g>
   <g id="patch_10">
    <path d="M 174.55625 267.608 
L 190.36611 267.608 
L 190.36611 248.403281 
L 174.55625 248.403281 
z
" clip-path="url(#p2366828dd3)" style="fill: #76b900; stroke: #ffffff; stroke-linejoin: miter"/>
   </g>
   <g id="patch_11">
    <path d="M 262.388803 267.608 
L 278.198663 267.608 
L 278.198663 240.998175 
L 262.388803 240.998175 
z
" clip-path="url(#p2366828dd3)" style="fill: #76b900; stroke: #ffffff; stroke-linejoin: miter"/>
   </g>
   <g id="patch_12">
    <path d="M 102.533556 267.608 
L 118.343416 267.608 
L 118.343416 176.270262 
L 102.533556 176.270262 
z
" clip-path="url(#p2366828dd3)" style="fill: #ff7f0e; stroke: #ffffff; stroke-linejoin: miter"/>
   </g>
   <g id="patch_13">
    <path d="M 190.36611 267.608 
L 206.175969 267.608 
L 206.175969 246.946539 
L 190.36611 246.946539 
z
" clip-path="url(#p2366828dd3)" style="fill: #ff7f0e; stroke: #ffffff; stroke-linejoin: miter"/>
   </g>
   <g id="patch_14">
    <path d="M 278.198663 267.608 
L 294.008523 267.608 
L 294.008523 236.822181 
L 278.198663 236.822181 
z
" clip-path="url(#p2366828dd3)" style="fill: #ff7f0e; stroke: #ffffff; stroke-linejoin: miter"/>
   </g>
   <g id="matplotlib.axis_1">
    <g id="xtick_1">
     <g id="line2d_1">
      <defs>
       <path id="m966f1de3ac" d="M 0 0 
L 0 3.5 
" style="stroke: #000000; stroke-width: 0.8"/>
      </defs>
      <g>
       <use xlink:href="#m966f1de3ac" x="86.723697" y="267.608" style="stroke: #000000; stroke-width: 0.8"/>
      </g>
     </g>
     <g id="text_1">
      <!-- Random -->
      <g transform="translate(72.23479 279.926906) scale(0.07 -0.07)">
       <defs>
        <path id="DejaVuSans-52" d="M 2841 2188 
Q 3044 2119 3236 1894 
Q 3428 1669 3622 1275 
L 4263 0 
L 3584 0 
L 2988 1197 
Q 2756 1666 2539 1819 
Q 2322 1972 1947 1972 
L 1259 1972 
L 1259 0 
L 628 0 
L 628 4666 
L 2053 4666 
Q 2853 4666 3247 4331 
Q 3641 3997 3641 3322 
Q 3641 2881 3436 2590 
Q 3231 2300 2841 2188 
z
M 1259 4147 
L 1259 2491 
L 2053 2491 
Q 2509 2491 2742 2702 
Q 2975 2913 2975 3322 
Q 2975 3731 2742 3939 
Q 2509 4147 2053 4147 
L 1259 4147 
z
" transform="scale(0.015625)"/>
        <path id="DejaVuSans-61" d="M 2194 1759 
Q 1497 1759 1228 1600 
Q 959 1441 959 1056 
Q 959 750 1161 570 
Q 1363 391 1709 391 
Q 2188 391 2477 730 
Q 2766 1069 2766 1631 
L 2766 1759 
L 2194 1759 
z
M 3341 1997 
L 3341 0 
L 2766 0 
L 2766 531 
Q 2569 213 2275 61 
Q 1981 -91 1556 -91 
Q 1019 -91 701 211 
Q 384 513 384 1019 
Q 384 1609 779 1909 
Q 1175 2209 1959 2209 
L 2766 2209 
L 2766 2266 
Q 2766 2663 2505 2880 
Q 2244 3097 1772 3097 
Q 1472 3097 1187 3025 
Q 903 2953 641 2809 
L 641 3341 
Q 956 3463 1253 3523 
Q 1550 3584 1831 3584 
Q 2591 3584 2966 3190 
Q 3341 2797 3341 1997 
z
" transform="scale(0.015625)"/>
        <path id="DejaVuSans-6e" d="M 3513 2113 
L 3513 0 
L 2938 0 
L 2938 2094 
Q 2938 2591 2744 2837 
Q 2550 3084 2163 3084 
Q 1697 3084 1428 2787 
Q 1159 2491 1159 1978 
L 1159 0 
L 581 0 
L 581 3500 
L 1159 3500 
L 1159 2956 
Q 1366 3272 1645 3428 
Q 1925 3584 2291 3584 
Q 2894 3584 3203 3211 
Q 3513 2838 3513 2113 
z
" transform="scale(0.015625)"/>
        <path id="DejaVuSans-64" d="M 2906 2969 
L 2906 4863 
L 3481 4863 
L 3481 0 
L 2906 0 
L 2906 525 
Q 2725 213 2448 61 
Q 2172 -91 1784 -91 
Q 1150 -91 751 415 
Q 353 922 353 1747 
Q 353 2572 751 3078 
Q 1150 3584 1784 3584 
Q 2172 3584 2448 3432 
Q 2725 3281 2906 2969 
z
M 947 1747 
Q 947 1113 1208 752 
Q 1469 391 1925 391 
Q 2381 391 2643 752 
Q 2906 1113 2906 1747 
Q 2906 2381 2643 2742 
Q 2381 3103 1925 3103 
Q 1469 3103 1208 2742 
Q 947 2381 947 1747 
z
" transform="scale(0.015625)"/>
        <path id="DejaVuSans-6f" d="M 1959 3097 
Q 1497 3097 1228 2736 
Q 959 2375 959 1747 
Q 959 1119 1226 758 
Q 1494 397 1959 397 
Q 2419 397 2687 759 
Q 2956 1122 2956 1747 
Q 2956 2369 2687 2733 
Q 2419 3097 1959 3097 
z
M 1959 3584 
Q 2709 3584 3137 3096 
Q 3566 2609 3566 1747 
Q 3566 888 3137 398 
Q 2709 -91 1959 -91 
Q 1206 -91 779 398 
Q 353 888 353 1747 
Q 353 2609 779 3096 
Q 1206 3584 1959 3584 
z
" transform="scale(0.015625)"/>
        <path id="DejaVuSans-6d" d="M 3328 2828 
Q 3544 3216 3844 3400 
Q 4144 3584 4550 3584 
Q 5097 3584 5394 3201 
Q 5691 2819 5691 2113 
L 5691 0 
L 5113 0 
L 5113 2094 
Q 5113 2597 4934 2840 
Q 4756 3084 4391 3084 
Q 3944 3084 3684 2787 
Q 3425 2491 3425 1978 
L 3425 0 
L 2847 0 
L 2847 2094 
Q 2847 2600 2669 2842 
Q 2491 3084 2119 3084 
Q 1678 3084 1418 2786 
Q 1159 2488 1159 1978 
L 1159 0 
L 581 0 
L 581 3500 
L 1159 3500 
L 1159 2956 
Q 1356 3278 1631 3431 
Q 1906 3584 2284 3584 
Q 2666 3584 2933 3390 
Q 3200 3197 3328 2828 
z
" transform="scale(0.015625)"/>
       </defs>
       <use xlink:href="#DejaVuSans-52"/>
       <use xlink:href="#DejaVuSans-61" transform="translate(67.232422 0)"/>
       <use xlink:href="#DejaVuSans-6e" transform="translate(128.511719 0)"/>
       <use xlink:href="#DejaVuSans-64" transform="translate(191.890625 0)"/>
       <use xlink:href="#DejaVuSans-6f" transform="translate(255.367188 0)"/>
       <use xlink:href="#DejaVuSans-6d" transform="translate(316.548828 0)"/>
      </g>
     </g>
    </g>
    <g id="xtick_2">
     <g id="line2d_2">
      <g>
       <use xlink:href="#m966f1de3ac" x="174.55625" y="267.608" style="stroke: #000000; stroke-width: 0.8"/>
      </g>
     </g>
     <g id="text_2">
      <!-- Clustered -->
      <g transform="translate(157.837187 279.926906) scale(0.07 -0.07)">
       <defs>
        <path id="DejaVuSans-43" d="M 4122 4306 
L 4122 3641 
Q 3803 3938 3442 4084 
Q 3081 4231 2675 4231 
Q 1875 4231 1450 3742 
Q 1025 3253 1025 2328 
Q 1025 1406 1450 917 
Q 1875 428 2675 428 
Q 3081 428 3442 575 
Q 3803 722 4122 1019 
L 4122 359 
Q 3791 134 3420 21 
Q 3050 -91 2638 -91 
Q 1578 -91 968 557 
Q 359 1206 359 2328 
Q 359 3453 968 4101 
Q 1578 4750 2638 4750 
Q 3056 4750 3426 4639 
Q 3797 4528 4122 4306 
z
" transform="scale(0.015625)"/>
        <path id="DejaVuSans-6c" d="M 603 4863 
L 1178 4863 
L 1178 0 
L 603 0 
L 603 4863 
z
" transform="scale(0.015625)"/>
        <path id="DejaVuSans-75" d="M 544 1381 
L 544 3500 
L 1119 3500 
L 1119 1403 
Q 1119 906 1312 657 
Q 1506 409 1894 409 
Q 2359 409 2629 706 
Q 2900 1003 2900 1516 
L 2900 3500 
L 3475 3500 
L 3475 0 
L 2900 0 
L 2900 538 
Q 2691 219 2414 64 
Q 2138 -91 1772 -91 
Q 1169 -91 856 284 
Q 544 659 544 1381 
z
M 1991 3584 
L 1991 3584 
z
" transform="scale(0.015625)"/>
        <path id="DejaVuSans-73" d="M 2834 3397 
L 2834 2853 
Q 2591 2978 2328 3040 
Q 2066 3103 1784 3103 
Q 1356 3103 1142 2972 
Q 928 2841 928 2578 
Q 928 2378 1081 2264 
Q 1234 2150 1697 2047 
L 1894 2003 
Q 2506 1872 2764 1633 
Q 3022 1394 3022 966 
Q 3022 478 2636 193 
Q 2250 -91 1575 -91 
Q 1294 -91 989 -36 
Q 684 19 347 128 
L 347 722 
Q 666 556 975 473 
Q 1284 391 1588 391 
Q 1994 391 2212 530 
Q 2431 669 2431 922 
Q 2431 1156 2273 1281 
Q 2116 1406 1581 1522 
L 1381 1569 
Q 847 1681 609 1914 
Q 372 2147 372 2553 
Q 372 3047 722 3315 
Q 1072 3584 1716 3584 
Q 2034 3584 2315 3537 
Q 2597 3491 2834 3397 
z
" transform="scale(0.015625)"/>
        <path id="DejaVuSans-74" d="M 1172 4494 
L 1172 3500 
L 2356 3500 
L 2356 3053 
L 1172 3053 
L 1172 1153 
Q 1172 725 1289 603 
Q 1406 481 1766 481 
L 2356 481 
L 2356 0 
L 1766 0 
Q 1100 0 847 248 
Q 594 497 594 1153 
L 594 3053 
L 172 3053 
L 172 3500 
L 594 3500 
L 594 4494 
L 1172 4494 
z
" transform="scale(0.015625)"/>
        <path id="DejaVuSans-65" d="M 3597 1894 
L 3597 1613 
L 953 1613 
Q 991 1019 1311 708 
Q 1631 397 2203 397 
Q 2534 397 2845 478 
Q 3156 559 3463 722 
L 3463 178 
Q 3153 47 2828 -22 
Q 2503 -91 2169 -91 
Q 1331 -91 842 396 
Q 353 884 353 1716 
Q 353 2575 817 3079 
Q 1281 3584 2069 3584 
Q 2775 3584 3186 3129 
Q 3597 2675 3597 1894 
z
M 3022 2063 
Q 3016 2534 2758 2815 
Q 2500 3097 2075 3097 
Q 1594 3097 1305 2825 
Q 1016 2553 972 2059 
L 3022 2063 
z
" transform="scale(0.015625)"/>
        <path id="DejaVuSans-72" d="M 2631 2963 
Q 2534 3019 2420 3045 
Q 2306 3072 2169 3072 
Q 1681 3072 1420 2755 
Q 1159 2438 1159 1844 
L 1159 0 
L 581 0 
L 581 3500 
L 1159 3500 
L 1159 2956 
Q 1341 3275 1631 3429 
Q 1922 3584 2338 3584 
Q 2397 3584 2469 3576 
Q 2541 3569 2628 3553 
L 2631 2963 
z
" transform="scale(0.015625)"/>
       </defs>
       <use xlink:href="#DejaVuSans-43"/>
       <use xlink:href="#DejaVuSans-6c" transform="translate(69.824219 0)"/>
       <use xlink:href="#DejaVuSans-75" transform="translate(97.607422 0)"/>
       <use xlink:href="#DejaVuSans-73" transform="translate(160.986328 0)"/>
       <use xlink:href="#DejaVuSans-74" transform="translate(213.085938 0)"/>
       <use xlink:href="#DejaVuSans-65" transform="translate(252.294922 0)"/>
       <use xlink:href="#DejaVuSans-72" transform="translate(313.818359 0)"/>
       <use xlink:href="#DejaVuSans-65" transform="translate(352.681641 0)"/>
       <use xlink:href="#DejaVuSans-64" transform="translate(414.205078 0)"/>
      </g>
      <!-- (32 same-container) -->
      <g transform="translate(138.881406 287.765375) scale(0.07 -0.07)">
       <defs>
        <path id="DejaVuSans-28" d="M 1984 4856 
Q 1566 4138 1362 3434 
Q 1159 2731 1159 2009 
Q 1159 1288 1364 580 
Q 1569 -128 1984 -844 
L 1484 -844 
Q 1016 -109 783 600 
Q 550 1309 550 2009 
Q 550 2706 781 3412 
Q 1013 4119 1484 4856 
L 1984 4856 
z
" transform="scale(0.015625)"/>
        <path id="DejaVuSans-33" d="M 2597 2516 
Q 3050 2419 3304 2112 
Q 3559 1806 3559 1356 
Q 3559 666 3084 287 
Q 2609 -91 1734 -91 
Q 1441 -91 1130 -33 
Q 819 25 488 141 
L 488 750 
Q 750 597 1062 519 
Q 1375 441 1716 441 
Q 2309 441 2620 675 
Q 2931 909 2931 1356 
Q 2931 1769 2642 2001 
Q 2353 2234 1838 2234 
L 1294 2234 
L 1294 2753 
L 1863 2753 
Q 2328 2753 2575 2939 
Q 2822 3125 2822 3475 
Q 2822 3834 2567 4026 
Q 2313 4219 1838 4219 
Q 1578 4219 1281 4162 
Q 984 4106 628 3988 
L 628 4550 
Q 988 4650 1302 4700 
Q 1616 4750 1894 4750 
Q 2613 4750 3031 4423 
Q 3450 4097 3450 3541 
Q 3450 3153 3228 2886 
Q 3006 2619 2597 2516 
z
" transform="scale(0.015625)"/>
        <path id="DejaVuSans-32" d="M 1228 531 
L 3431 531 
L 3431 0 
L 469 0 
L 469 531 
Q 828 903 1448 1529 
Q 2069 2156 2228 2338 
Q 2531 2678 2651 2914 
Q 2772 3150 2772 3378 
Q 2772 3750 2511 3984 
Q 2250 4219 1831 4219 
Q 1534 4219 1204 4116 
Q 875 4013 500 3803 
L 500 4441 
Q 881 4594 1212 4672 
Q 1544 4750 1819 4750 
Q 2544 4750 2975 4387 
Q 3406 4025 3406 3419 
Q 3406 3131 3298 2873 
Q 3191 2616 2906 2266 
Q 2828 2175 2409 1742 
Q 1991 1309 1228 531 
z
" transform="scale(0.015625)"/>
        <path id="DejaVuSans-20" transform="scale(0.015625)"/>
        <path id="DejaVuSans-2d" d="M 313 2009 
L 1997 2009 
L 1997 1497 
L 313 1497 
L 313 2009 
z
" transform="scale(0.015625)"/>
        <path id="DejaVuSans-63" d="M 3122 3366 
L 3122 2828 
Q 2878 2963 2633 3030 
Q 2388 3097 2138 3097 
Q 1578 3097 1268 2742 
Q 959 2388 959 1747 
Q 959 1106 1268 751 
Q 1578 397 2138 397 
Q 2388 397 2633 464 
Q 2878 531 3122 666 
L 3122 134 
Q 2881 22 2623 -34 
Q 2366 -91 2075 -91 
Q 1284 -91 818 406 
Q 353 903 353 1747 
Q 353 2603 823 3093 
Q 1294 3584 2113 3584 
Q 2378 3584 2631 3529 
Q 2884 3475 3122 3366 
z
" transform="scale(0.015625)"/>
        <path id="DejaVuSans-69" d="M 603 3500 
L 1178 3500 
L 1178 0 
L 603 0 
L 603 3500 
z
M 603 4863 
L 1178 4863 
L 1178 4134 
L 603 4134 
L 603 4863 
z
" transform="scale(0.015625)"/>
        <path id="DejaVuSans-29" d="M 513 4856 
L 1013 4856 
Q 1481 4119 1714 3412 
Q 1947 2706 1947 2009 
Q 1947 1309 1714 600 
Q 1481 -109 1013 -844 
L 513 -844 
Q 928 -128 1133 580 
Q 1338 1288 1338 2009 
Q 1338 2731 1133 3434 
Q 928 4138 513 4856 
z
" transform="scale(0.015625)"/>
       </defs>
       <use xlink:href="#DejaVuSans-28"/>
       <use xlink:href="#DejaVuSans-33" transform="translate(39.013672 0)"/>
       <use xlink:href="#DejaVuSans-32" transform="translate(102.636719 0)"/>
       <use xlink:href="#DejaVuSans-20" transform="translate(166.259766 0)"/>
       <use xlink:href="#DejaVuSans-73" transform="translate(198.046875 0)"/>
       <use xlink:href="#DejaVuSans-61" transform="translate(250.146484 0)"/>
       <use xlink:href="#DejaVuSans-6d" transform="translate(311.425781 0)"/>
       <use xlink:href="#DejaVuSans-65" transform="translate(408.837891 0)"/>
       <use xlink:href="#DejaVuSans-2d" transform="translate(470.361328 0)"/>
       <use xlink:href="#DejaVuSans-63" transform="translate(506.445312 0)"/>
       <use xlink:href="#DejaVuSans-6f" transform="translate(561.425781 0)"/>
       <use xlink:href="#DejaVuSans-6e" transform="translate(622.607422 0)"/>
       <use xlink:href="#DejaVuSans-74" transform="translate(685.986328 0)"/>
       <use xlink:href="#DejaVuSans-61" transform="translate(725.195312 0)"/>
       <use xlink:href="#DejaVuSans-69" transform="translate(786.474609 0)"/>
       <use xlink:href="#DejaVuSans-6e" transform="translate(814.257812 0)"/>
       <use xlink:href="#DejaVuSans-65" transform="translate(877.636719 0)"/>
       <use xlink:href="#DejaVuSans-72" transform="translate(939.160156 0)"/>
       <use xlink:href="#DejaVuSans-29" transform="translate(980.273438 0)"/>
      </g>
     </g>
    </g>
    <g id="xtick_3">
     <g id="line2d_3">
      <g>
       <use xlink:href="#m966f1de3ac" x="262.388803" y="267.608" style="stroke: #000000; stroke-width: 0.8"/>
      </g>
     </g>
     <g id="text_3">
      <!-- Strided -->
      <g transform="translate(249.786069 279.926906) scale(0.07 -0.07)">
       <defs>
        <path id="DejaVuSans-53" d="M 3425 4513 
L 3425 3897 
Q 3066 4069 2747 4153 
Q 2428 4238 2131 4238 
Q 1616 4238 1336 4038 
Q 1056 3838 1056 3469 
Q 1056 3159 1242 3001 
Q 1428 2844 1947 2747 
L 2328 2669 
Q 3034 2534 3370 2195 
Q 3706 1856 3706 1288 
Q 3706 609 3251 259 
Q 2797 -91 1919 -91 
Q 1588 -91 1214 -16 
Q 841 59 441 206 
L 441 856 
Q 825 641 1194 531 
Q 1563 422 1919 422 
Q 2459 422 2753 634 
Q 3047 847 3047 1241 
Q 3047 1584 2836 1778 
Q 2625 1972 2144 2069 
L 1759 2144 
Q 1053 2284 737 2584 
Q 422 2884 422 3419 
Q 422 4038 858 4394 
Q 1294 4750 2059 4750 
Q 2388 4750 2728 4690 
Q 3069 4631 3425 4513 
z
" transform="scale(0.015625)"/>
       </defs>
       <use xlink:href="#DejaVuSans-53"/>
       <use xlink:href="#DejaVuSans-74" transform="translate(63.476562 0)"/>
       <use xlink:href="#DejaVuSans-72" transform="translate(102.685547 0)"/>
       <use xlink:href="#DejaVuSans-69" transform="translate(143.798828 0)"/>
       <use xlink:href="#DejaVuSans-64" transform="translate(171.582031 0)"/>
       <use xlink:href="#DejaVuSans-65" transform="translate(235.058594 0)"/>
       <use xlink:href="#DejaVuSans-64" transform="translate(296.582031 0)"/>
      </g>
      <!-- (graph-like) -->
      <g transform="translate(242.151147 287.765375) scale(0.07 -0.07)">
       <defs>
        <path id="DejaVuSans-67" d="M 2906 1791 
Q 2906 2416 2648 2759 
Q 2391 3103 1925 3103 
Q 1463 3103 1205 2759 
Q 947 2416 947 1791 
Q 947 1169 1205 825 
Q 1463 481 1925 481 
Q 2391 481 2648 825 
Q 2906 1169 2906 1791 
z
M 3481 434 
Q 3481 -459 3084 -895 
Q 2688 -1331 1869 -1331 
Q 1566 -1331 1297 -1286 
Q 1028 -1241 775 -1147 
L 775 -588 
Q 1028 -725 1275 -790 
Q 1522 -856 1778 -856 
Q 2344 -856 2625 -561 
Q 2906 -266 2906 331 
L 2906 616 
Q 2728 306 2450 153 
Q 2172 0 1784 0 
Q 1141 0 747 490 
Q 353 981 353 1791 
Q 353 2603 747 3093 
Q 1141 3584 1784 3584 
Q 2172 3584 2450 3431 
Q 2728 3278 2906 2969 
L 2906 3500 
L 3481 3500 
L 3481 434 
z
" transform="scale(0.015625)"/>
        <path id="DejaVuSans-70" d="M 1159 525 
L 1159 -1331 
L 581 -1331 
L 581 3500 
L 1159 3500 
L 1159 2969 
Q 1341 3281 1617 3432 
Q 1894 3584 2278 3584 
Q 2916 3584 3314 3078 
Q 3713 2572 3713 1747 
Q 3713 922 3314 415 
Q 2916 -91 2278 -91 
Q 1894 -91 1617 61 
Q 1341 213 1159 525 
z
M 3116 1747 
Q 3116 2381 2855 2742 
Q 2594 3103 2138 3103 
Q 1681 3103 1420 2742 
Q 1159 2381 1159 1747 
Q 1159 1113 1420 752 
Q 1681 391 2138 391 
Q 2594 391 2855 752 
Q 3116 1113 3116 1747 
z
" transform="scale(0.015625)"/>
        <path id="DejaVuSans-68" d="M 3513 2113 
L 3513 0 
L 2938 0 
L 2938 2094 
Q 2938 2591 2744 2837 
Q 2550 3084 2163 3084 
Q 1697 3084 1428 2787 
Q 1159 2491 1159 1978 
L 1159 0 
L 581 0 
L 581 4863 
L 1159 4863 
L 1159 2956 
Q 1366 3272 1645 3428 
Q 1925 3584 2291 3584 
Q 2894 3584 3203 3211 
Q 3513 2838 3513 2113 
z
" transform="scale(0.015625)"/>
        <path id="DejaVuSans-6b" d="M 581 4863 
L 1159 4863 
L 1159 1991 
L 2875 3500 
L 3609 3500 
L 1753 1863 
L 3688 0 
L 2938 0 
L 1159 1709 
L 1159 0 
L 581 0 
L 581 4863 
z
" transform="scale(0.015625)"/>
       </defs>
       <use xlink:href="#DejaVuSans-28"/>
       <use xlink:href="#DejaVuSans-67" transform="translate(39.013672 0)"/>
       <use xlink:href="#DejaVuSans-72" transform="translate(102.490234 0)"/>
       <use xlink:href="#DejaVuSans-61" transform="translate(143.603516 0)"/>
       <use xlink:href="#DejaVuSans-70" transform="translate(204.882812 0)"/>
       <use xlink:href="#DejaVuSans-68" transform="translate(268.359375 0)"/>
       <use xlink:href="#DejaVuSans-2d" transform="translate(331.738281 0)"/>
       <use xlink:href="#DejaVuSans-6c" transform="translate(367.822266 0)"/>
       <use xlink:href="#DejaVuSans-69" transform="translate(395.605469 0)"/>
       <use xlink:href="#DejaVuSans-6b" transform="translate(423.388672 0)"/>
       <use xlink:href="#DejaVuSans-65" transform="translate(477.673828 0)"/>
       <use xlink:href="#DejaVuSans-29" transform="translate(539.197266 0)"/>
      </g>
     </g>
    </g>
   </g>
   <g id="matplotlib.axis_2">
    <g id="ytick_1">
     <g id="line2d_4">
      <path d="M 43.15875 267.608 
L 305.95375 267.608 
" clip-path="url(#p2366828dd3)" style="fill: none; stroke: #b0b0b0; stroke-opacity: 0.3; stroke-width: 0.8; stroke-linecap: square"/>
     </g>
     <g id="line2d_5">
      <defs>
       <path id="m971430a933" d="M 0 0 
L -3.5 0 
" style="stroke: #000000; stroke-width: 0.8"/>
      </defs>
      <g>
       <use xlink:href="#m971430a933" x="43.15875" y="267.608" style="stroke: #000000; stroke-width: 0.8"/>
      </g>
     </g>
     <g id="text_4">
      <!-- 0.0 -->
      <g transform="translate(21.845938 271.027297) scale(0.09 -0.09)">
       <defs>
        <path id="DejaVuSans-30" d="M 2034 4250 
Q 1547 4250 1301 3770 
Q 1056 3291 1056 2328 
Q 1056 1369 1301 889 
Q 1547 409 2034 409 
Q 2525 409 2770 889 
Q 3016 1369 3016 2328 
Q 3016 3291 2770 3770 
Q 2525 4250 2034 4250 
z
M 2034 4750 
Q 2819 4750 3233 4129 
Q 3647 3509 3647 2328 
Q 3647 1150 3233 529 
Q 2819 -91 2034 -91 
Q 1250 -91 836 529 
Q 422 1150 422 2328 
Q 422 3509 836 4129 
Q 1250 4750 2034 4750 
z
" transform="scale(0.015625)"/>
        <path id="DejaVuSans-2e" d="M 684 794 
L 1344 794 
L 1344 0 
L 684 0 
L 684 794 
z
" transform="scale(0.015625)"/>
       </defs>
       <use xlink:href="#DejaVuSans-30"/>
       <use xlink:href="#DejaVuSans-2e" transform="translate(63.623047 0)"/>
       <use xlink:href="#DejaVuSans-30" transform="translate(95.410156 0)"/>
      </g>
     </g>
    </g>
    <g id="ytick_2">
     <g id="line2d_6">
      <path d="M 43.15875 243.328963 
L 305.95375 243.328963 
" clip-path="url(#p2366828dd3)" style="fill: none; stroke: #b0b0b0; stroke-opacity: 0.3; stroke-width: 0.8; stroke-linecap: square"/>
     </g>
     <g id="line2d_7">
      <g>
       <use xlink:href="#m971430a933" x="43.15875" y="243.328963" style="stroke: #000000; stroke-width: 0.8"/>
      </g>
     </g>
     <g id="text_5">
      <!-- 0.1 -->
      <g transform="translate(21.845938 246.74826) scale(0.09 -0.09)">
       <defs>
        <path id="DejaVuSans-31" d="M 794 531 
L 1825 531 
L 1825 4091 
L 703 3866 
L 703 4441 
L 1819 4666 
L 2450 4666 
L 2450 531 
L 3481 531 
L 3481 0 
L 794 0 
L 794 531 
z
" transform="scale(0.015625)"/>
       </defs>
       <use xlink:href="#DejaVuSans-30"/>
       <use xlink:href="#DejaVuSans-2e" transform="translate(63.623047 0)"/>
       <use xlink:href="#DejaVuSans-31" transform="translate(95.410156 0)"/>
      </g>
     </g>
    </g>
    <g id="ytick_3">
     <g id="line2d_8">
      <path d="M 43.15875 219.049925 
L 305.95375 219.049925 
" clip-path="url(#p2366828dd3)" style="fill: none; stroke: #b0b0b0; stroke-opacity: 0.3; stroke-width: 0.8; stroke-linecap: square"/>
     </g>
     <g id="line2d_9">
      <g>
       <use xlink:href="#m971430a933" x="43.15875" y="219.049925" style="stroke: #000000; stroke-width: 0.8"/>
      </g>
     </g>
     <g id="text_6">
      <!-- 0.2 -->
      <g transform="translate(21.845938 222.469222) scale(0.09 -0.09)">
       <use xlink:href="#DejaVuSans-30"/>
       <use xlink:href="#DejaVuSans-2e" transform="translate(63.623047 0)"/>
       <use xlink:href="#DejaVuSans-32" transform="translate(95.410156 0)"/>
      </g>
     </g>
    </g>
    <g id="ytick_4">
     <g id="line2d_10">
      <path d="M 43.15875 194.770888 
L 305.95375 194.770888 
" clip-path="url(#p2366828dd3)" style="fill: none; stroke: #b0b0b0; stroke-opacity: 0.3; stroke-width: 0.8; stroke-linecap: square"/>
     </g>
     <g id="line2d_11">
      <g>
       <use xlink:href="#m971430a933" x="43.15875" y="194.770888" style="stroke: #000000; stroke-width: 0.8"/>
      </g>
     </g>
     <g id="text_7">
      <!-- 0.3 -->
      <g transform="translate(21.845938 198.190185) scale(0.09 -0.09)">
       <use xlink:href="#DejaVuSans-30"/>
       <use xlink:href="#DejaVuSans-2e" transform="translate(63.623047 0)"/>
       <use xlink:href="#DejaVuSans-33" transform="translate(95.410156 0)"/>
      </g>
     </g>
    </g>
    <g id="ytick_5">
     <g id="line2d_12">
      <path d="M 43.15875 170.491851 
L 305.95375 170.491851 
" clip-path="url(#p2366828dd3)" style="fill: none; stroke: #b0b0b0; stroke-opacity: 0.3; stroke-width: 0.8; stroke-linecap: square"/>
     </g>
     <g id="line2d_13">
      <g>
       <use xlink:href="#m971430a933" x="43.15875" y="170.491851" style="stroke: #000000; stroke-width: 0.8"/>
      </g>
     </g>
     <g id="text_8">
      <!-- 0.4 -->
      <g transform="translate(21.845938 173.911148) scale(0.09 -0.09)">
       <defs>
        <path id="DejaVuSans-34" d="M 2419 4116 
L 825 1625 
L 2419 1625 
L 2419 4116 
z
M 2253 4666 
L 3047 4666 
L 3047 1625 
L 3713 1625 
L 3713 1100 
L 3047 1100 
L 3047 0 
L 2419 0 
L 2419 1100 
L 313 1100 
L 313 1709 
L 2253 4666 
z
" transform="scale(0.015625)"/>
       </defs>
       <use xlink:href="#DejaVuSans-30"/>
       <use xlink:href="#DejaVuSans-2e" transform="translate(63.623047 0)"/>
       <use xlink:href="#DejaVuSans-34" transform="translate(95.410156 0)"/>
      </g>
     </g>
    </g>
    <g id="ytick_6">
     <g id="line2d_14">
      <path d="M 43.15875 146.212813 
L 305.95375 146.212813 
" clip-path="url(#p2366828dd3)" style="fill: none; stroke: #b0b0b0; stroke-opacity: 0.3; stroke-width: 0.8; stroke-linecap: square"/>
     </g>
     <g id="line2d_15">
      <g>
       <use xlink:href="#m971430a933" x="43.15875" y="146.212813" style="stroke: #000000; stroke-width: 0.8"/>
      </g>
     </g>
     <g id="text_9">
      <!-- 0.5 -->
      <g transform="translate(21.845938 149.63211) scale(0.09 -0.09)">
       <defs>
        <path id="DejaVuSans-35" d="M 691 4666 
L 3169 4666 
L 3169 4134 
L 1269 4134 
L 1269 2991 
Q 1406 3038 1543 3061 
Q 1681 3084 1819 3084 
Q 2600 3084 3056 2656 
Q 3513 2228 3513 1497 
Q 3513 744 3044 326 
Q 2575 -91 1722 -91 
Q 1428 -91 1123 -41 
Q 819 9 494 109 
L 494 744 
Q 775 591 1075 516 
Q 1375 441 1709 441 
Q 2250 441 2565 725 
Q 2881 1009 2881 1497 
Q 2881 1984 2565 2268 
Q 2250 2553 1709 2553 
Q 1456 2553 1204 2497 
Q 953 2441 691 2322 
L 691 4666 
z
" transform="scale(0.015625)"/>
       </defs>
       <use xlink:href="#DejaVuSans-30"/>
       <use xlink:href="#DejaVuSans-2e" transform="translate(63.623047 0)"/>
       <use xlink:href="#DejaVuSans-35" transform="translate(95.410156 0)"/>
      </g>
     </g>
    </g>
    <g id="ytick_7">
     <g id="line2d_16">
      <path d="M 43.15875 121.933776 
L 305.95375 121.933776 
" clip-path="url(#p2366828dd3)" style="fill: none; stroke: #b0b0b0; stroke-opacity: 0.3; stroke-width: 0.8; stroke-linecap: square"/>
     </g>
     <g id="line2d_17">
      <g>
       <use xlink:href="#m971430a933" x="43.15875" y="121.933776" style="stroke: #000000; stroke-width: 0.8"/>
      </g>
     </g>
     <g id="text_10">
      <!-- 0.6 -->
      <g transform="translate(21.845938 125.353073) scale(0.09 -0.09)">
       <defs>
        <path id="DejaVuSans-36" d="M 2113 2584 
Q 1688 2584 1439 2293 
Q 1191 2003 1191 1497 
Q 1191 994 1439 701 
Q 1688 409 2113 409 
Q 2538 409 2786 701 
Q 3034 994 3034 1497 
Q 3034 2003 2786 2293 
Q 2538 2584 2113 2584 
z
M 3366 4563 
L 3366 3988 
Q 3128 4100 2886 4159 
Q 2644 4219 2406 4219 
Q 1781 4219 1451 3797 
Q 1122 3375 1075 2522 
Q 1259 2794 1537 2939 
Q 1816 3084 2150 3084 
Q 2853 3084 3261 2657 
Q 3669 2231 3669 1497 
Q 3669 778 3244 343 
Q 2819 -91 2113 -91 
Q 1303 -91 875 529 
Q 447 1150 447 2328 
Q 447 3434 972 4092 
Q 1497 4750 2381 4750 
Q 2619 4750 2861 4703 
Q 3103 4656 3366 4563 
z
" transform="scale(0.015625)"/>
       </defs>
       <use xlink:href="#DejaVuSans-30"/>
       <use xlink:href="#DejaVuSans-2e" transform="translate(63.623047 0)"/>
       <use xlink:href="#DejaVuSans-36" transform="translate(95.410156 0)"/>
      </g>
     </g>
    </g>
    <g id="ytick_8">
     <g id="line2d_18">
      <path d="M 43.15875 97.654739 
L 305.95375 97.654739 
" clip-path="url(#p2366828dd3)" style="fill: none; stroke: #b0b0b0; stroke-opacity: 0.3; stroke-width: 0.8; stroke-linecap: square"/>
     </g>
     <g id="line2d_19">
      <g>
       <use xlink:href="#m971430a933" x="43.15875" y="97.654739" style="stroke: #000000; stroke-width: 0.8"/>
      </g>
     </g>
     <g id="text_11">
      <!-- 0.7 -->
      <g transform="translate(21.845938 101.074036) scale(0.09 -0.09)">
       <defs>
        <path id="DejaVuSans-37" d="M 525 4666 
L 3525 4666 
L 3525 4397 
L 1831 0 
L 1172 0 
L 2766 4134 
L 525 4134 
L 525 4666 
z
" transform="scale(0.015625)"/>
       </defs>
       <use xlink:href="#DejaVuSans-30"/>
       <use xlink:href="#DejaVuSans-2e" transform="translate(63.623047 0)"/>
       <use xlink:href="#DejaVuSans-37" transform="translate(95.410156 0)"/>
      </g>
     </g>
    </g>
    <g id="ytick_9">
     <g id="line2d_20">
      <path d="M 43.15875 73.375701 
L 305.95375 73.375701 
" clip-path="url(#p2366828dd3)" style="fill: none; stroke: #b0b0b0; stroke-opacity: 0.3; stroke-width: 0.8; stroke-linecap: square"/>
     </g>
     <g id="line2d_21">
      <g>
       <use xlink:href="#m971430a933" x="43.15875" y="73.375701" style="stroke: #000000; stroke-width: 0.8"/>
      </g>
     </g>
     <g id="text_12">
      <!-- 0.8 -->
      <g transform="translate(21.845938 76.794998) scale(0.09 -0.09)">
       <defs>
        <path id="DejaVuSans-38" d="M 2034 2216 
Q 1584 2216 1326 1975 
Q 1069 1734 1069 1313 
Q 1069 891 1326 650 
Q 1584 409 2034 409 
Q 2484 409 2743 651 
Q 3003 894 3003 1313 
Q 3003 1734 2745 1975 
Q 2488 2216 2034 2216 
z
M 1403 2484 
Q 997 2584 770 2862 
Q 544 3141 544 3541 
Q 544 4100 942 4425 
Q 1341 4750 2034 4750 
Q 2731 4750 3128 4425 
Q 3525 4100 3525 3541 
Q 3525 3141 3298 2862 
Q 3072 2584 2669 2484 
Q 3125 2378 3379 2068 
Q 3634 1759 3634 1313 
Q 3634 634 3220 271 
Q 2806 -91 2034 -91 
Q 1263 -91 848 271 
Q 434 634 434 1313 
Q 434 1759 690 2068 
Q 947 2378 1403 2484 
z
M 1172 3481 
Q 1172 3119 1398 2916 
Q 1625 2713 2034 2713 
Q 2441 2713 2670 2916 
Q 2900 3119 2900 3481 
Q 2900 3844 2670 4047 
Q 2441 4250 2034 4250 
Q 1625 4250 1398 4047 
Q 1172 3844 1172 3481 
z
" transform="scale(0.015625)"/>
       </defs>
       <use xlink:href="#DejaVuSans-30"/>
       <use xlink:href="#DejaVuSans-2e" transform="translate(63.623047 0)"/>
       <use xlink:href="#DejaVuSans-38" transform="translate(95.410156 0)"/>
      </g>
     </g>
    </g>
    <g id="text_13">
     <!-- Latency (ms) — 10M queries -->
     <g transform="translate(15.558281 243.774625) rotate(-90) scale(0.11 -0.11)">
      <defs>
       <path id="DejaVuSans-4c" d="M 628 4666 
L 1259 4666 
L 1259 531 
L 3531 531 
L 3531 0 
L 628 0 
L 628 4666 
z
" transform="scale(0.015625)"/>
       <path id="DejaVuSans-79" d="M 2059 -325 
Q 1816 -950 1584 -1140 
Q 1353 -1331 966 -1331 
L 506 -1331 
L 506 -850 
L 844 -850 
Q 1081 -850 1212 -737 
Q 1344 -625 1503 -206 
L 1606 56 
L 191 3500 
L 800 3500 
L 1894 763 
L 2988 3500 
L 3597 3500 
L 2059 -325 
z
" transform="scale(0.015625)"/>
       <path id="DejaVuSans-2014" d="M 313 1978 
L 6088 1978 
L 6088 1528 
L 313 1528 
L 313 1978 
z
" transform="scale(0.015625)"/>
       <path id="DejaVuSans-4d" d="M 628 4666 
L 1569 4666 
L 2759 1491 
L 3956 4666 
L 4897 4666 
L 4897 0 
L 4281 0 
L 4281 4097 
L 3078 897 
L 2444 897 
L 1241 4097 
L 1241 0 
L 628 0 
L 628 4666 
z
" transform="scale(0.015625)"/>
       <path id="DejaVuSans-71" d="M 947 1747 
Q 947 1113 1208 752 
Q 1469 391 1925 391 
Q 2381 391 2643 752 
Q 2906 1113 2906 1747 
Q 2906 2381 2643 2742 
Q 2381 3103 1925 3103 
Q 1469 3103 1208 2742 
Q 947 2381 947 1747 
z
M 2906 525 
Q 2725 213 2448 61 
Q 2172 -91 1784 -91 
Q 1150 -91 751 415 
Q 353 922 353 1747 
Q 353 2572 751 3078 
Q 1150 3584 1784 3584 
Q 2172 3584 2448 3432 
Q 2725 3281 2906 2969 
L 2906 3500 
L 3481 3500 
L 3481 -1331 
L 2906 -1331 
L 2906 525 
z
" transform="scale(0.015625)"/>
      </defs>
      <use xlink:href="#DejaVuSans-4c"/>
      <use xlink:href="#DejaVuSans-61" transform="translate(55.712891 0)"/>
      <use xlink:href="#DejaVuSans-74" transform="translate(116.992188 0)"/>
      <use xlink:href="#DejaVuSans-65" transform="translate(156.201172 0)"/>
      <use xlink:href="#DejaVuSans-6e" transform="translate(217.724609 0)"/>
      <use xlink:href="#DejaVuSans-63" transform="translate(281.103516 0)"/>
      <use xlink:href="#DejaVuSans-79" transform="translate(336.083984 0)"/>
      <use xlink:href="#DejaVuSans-20" transform="translate(395.263672 0)"/>
      <use xlink:href="#DejaVuSans-28" transform="translate(427.050781 0)"/>
      <use xlink:href="#DejaVuSans-6d" transform="translate(466.064453 0)"/>
      <use xlink:href="#DejaVuSans-73" transform="translate(563.476562 0)"/>
      <use xlink:href="#DejaVuSans-29" transform="translate(615.576172 0)"/>
      <use xlink:href="#DejaVuSans-20" transform="translate(654.589844 0)"/>
      <use xlink:href="#DejaVuSans-2014" transform="translate(686.376953 0)"/>
      <use xlink:href="#DejaVuSans-20" transform="translate(786.376953 0)"/>
      <use xlink:href="#DejaVuSans-31" transform="translate(818.164062 0)"/>
      <use xlink:href="#DejaVuSans-30" transform="translate(881.787109 0)"/>
      <use xlink:href="#DejaVuSans-4d" transform="translate(945.410156 0)"/>
      <use xlink:href="#DejaVuSans-20" transform="translate(1031.689453 0)"/>
      <use xlink:href="#DejaVuSans-71" transform="translate(1063.476562 0)"/>
      <use xlink:href="#DejaVuSans-75" transform="translate(1126.953125 0)"/>
      <use xlink:href="#DejaVuSans-65" transform="translate(1190.332031 0)"/>
      <use xlink:href="#DejaVuSans-72" transform="translate(1251.855469 0)"/>
      <use xlink:href="#DejaVuSans-69" transform="translate(1292.96875 0)"/>
      <use xlink:href="#DejaVuSans-65" transform="translate(1320.751953 0)"/>
      <use xlink:href="#DejaVuSans-73" transform="translate(1382.275391 0)"/>
     </g>
    </g>
   </g>
   <g id="patch_15">
    <path d="M 43.15875 267.608 
L 43.15875 62.16 
" style="fill: none; stroke: #000000; stroke-width: 0.8; stroke-linejoin: miter; stroke-linecap: square"/>
   </g>
   <g id="patch_16">
    <path d="M 43.15875 267.608 
L 305.95375 267.608 
" style="fill: none; stroke: #000000; stroke-width: 0.8; stroke-linejoin: miter; stroke-linecap: square"/>
   </g>
   <g id="text_14">
    <!-- 0.1% density -->
    <g transform="translate(135.407187 56.16) scale(0.12 -0.12)">
     <defs>
      <path id="DejaVuSans-25" d="M 4653 2053 
Q 4381 2053 4226 1822 
Q 4072 1591 4072 1178 
Q 4072 772 4226 539 
Q 4381 306 4653 306 
Q 4919 306 5073 539 
Q 5228 772 5228 1178 
Q 5228 1588 5073 1820 
Q 4919 2053 4653 2053 
z
M 4653 2450 
Q 5147 2450 5437 2106 
Q 5728 1763 5728 1178 
Q 5728 594 5436 251 
Q 5144 -91 4653 -91 
Q 4153 -91 3862 251 
Q 3572 594 3572 1178 
Q 3572 1766 3864 2108 
Q 4156 2450 4653 2450 
z
M 1428 4353 
Q 1159 4353 1004 4120 
Q 850 3888 850 3481 
Q 850 3069 1003 2837 
Q 1156 2606 1428 2606 
Q 1700 2606 1854 2837 
Q 2009 3069 2009 3481 
Q 2009 3884 1853 4118 
Q 1697 4353 1428 4353 
z
M 4250 4750 
L 4750 4750 
L 1831 -91 
L 1331 -91 
L 4250 4750 
z
M 1428 4750 
Q 1922 4750 2215 4408 
Q 2509 4066 2509 3481 
Q 2509 2891 2217 2550 
Q 1925 2209 1428 2209 
Q 931 2209 642 2551 
Q 353 2894 353 3481 
Q 353 4063 643 4406 
Q 934 4750 1428 4750 
z
" transform="scale(0.015625)"/>
     </defs>
     <use xlink:href="#DejaVuSans-30"/>
     <use xlink:href="#DejaVuSans-2e" transform="translate(63.623047 0)"/>
     <use xlink:href="#DejaVuSans-31" transform="translate(95.410156 0)"/>
     <use xlink:href="#DejaVuSans-25" transform="translate(159.033203 0)"/>
     <use xlink:href="#DejaVuSans-20" transform="translate(254.052734 0)"/>
     <use xlink:href="#DejaVuSans-64" transform="translate(285.839844 0)"/>
     <use xlink:href="#DejaVuSans-65" transform="translate(349.316406 0)"/>
     <use xlink:href="#DejaVuSans-6e" transform="translate(410.839844 0)"/>
     <use xlink:href="#DejaVuSans-73" transform="translate(474.21875 0)"/>
     <use xlink:href="#DejaVuSans-69" transform="translate(526.318359 0)"/>
     <use xlink:href="#DejaVuSans-74" transform="translate(554.101562 0)"/>
     <use xlink:href="#DejaVuSans-79" transform="translate(593.310547 0)"/>
    </g>
   </g>
   <g id="legend_1">
    <g id="patch_17">
     <path d="M 48.05875 109.053437 
L 126.386562 109.053437 
Q 127.786563 109.053437 127.786563 107.653437 
L 127.786563 67.06 
Q 127.786563 65.66 126.386562 65.66 
L 48.05875 65.66 
Q 46.65875 65.66 46.65875 67.06 
L 46.65875 107.653437 
Q 46.65875 109.053437 48.05875 109.053437 
z
" style="fill: #ffffff; opacity: 0.8; stroke: #cccccc; stroke-linejoin: miter"/>
    </g>
    <g id="patch_18">
     <path d="M 49.45875 73.778906 
L 63.45875 73.778906 
L 63.45875 68.878906 
L 49.45875 68.878906 
z
" style="fill: #888888; stroke: #ffffff; stroke-linejoin: miter"/>
    </g>
    <g id="text_15">
     <!-- Flat bitset -->
     <g transform="translate(69.05875 73.778906) scale(0.07 -0.07)">
      <defs>
       <path id="DejaVuSans-46" d="M 628 4666 
L 3309 4666 
L 3309 4134 
L 1259 4134 
L 1259 2759 
L 3109 2759 
L 3109 2228 
L 1259 2228 
L 1259 0 
L 628 0 
L 628 4666 
z
" transform="scale(0.015625)"/>
       <path id="DejaVuSans-62" d="M 3116 1747 
Q 3116 2381 2855 2742 
Q 2594 3103 2138 3103 
Q 1681 3103 1420 2742 
Q 1159 2381 1159 1747 
Q 1159 1113 1420 752 
Q 1681 391 2138 391 
Q 2594 391 2855 752 
Q 3116 1113 3116 1747 
z
M 1159 2969 
Q 1341 3281 1617 3432 
Q 1894 3584 2278 3584 
Q 2916 3584 3314 3078 
Q 3713 2572 3713 1747 
Q 3713 922 3314 415 
Q 2916 -91 2278 -91 
Q 1894 -91 1617 61 
Q 1341 213 1159 525 
L 1159 0 
L 581 0 
L 581 4863 
L 1159 4863 
L 1159 2969 
z
" transform="scale(0.015625)"/>
      </defs>
      <use xlink:href="#DejaVuSans-46"/>
      <use xlink:href="#DejaVuSans-6c" transform="translate(57.519531 0)"/>
      <use xlink:href="#DejaVuSans-61" transform="translate(85.302734 0)"/>
      <use xlink:href="#DejaVuSans-74" transform="translate(146.582031 0)"/>
      <use xlink:href="#DejaVuSans-20" transform="translate(185.791016 0)"/>
      <use xlink:href="#DejaVuSans-62" transform="translate(217.578125 0)"/>
      <use xlink:href="#DejaVuSans-69" transform="translate(281.054688 0)"/>
      <use xlink:href="#DejaVuSans-74" transform="translate(308.837891 0)"/>
      <use xlink:href="#DejaVuSans-73" transform="translate(348.046875 0)"/>
      <use xlink:href="#DejaVuSans-65" transform="translate(400.146484 0)"/>
      <use xlink:href="#DejaVuSans-74" transform="translate(461.669922 0)"/>
     </g>
    </g>
    <g id="patch_19">
     <path d="M 49.45875 84.053594 
L 63.45875 84.053594 
L 63.45875 79.153594 
L 49.45875 79.153594 
z
" style="fill: #1f77b4; stroke: #ffffff; stroke-linejoin: miter"/>
    </g>
    <g id="text_16">
     <!-- contains() -->
     <g transform="translate(69.05875 84.053594) scale(0.07 -0.07)">
      <use xlink:href="#DejaVuSans-63"/>
      <use xlink:href="#DejaVuSans-6f" transform="translate(54.980469 0)"/>
      <use xlink:href="#DejaVuSans-6e" transform="translate(116.162109 0)"/>
      <use xlink:href="#DejaVuSans-74" transform="translate(179.541016 0)"/>
      <use xlink:href="#DejaVuSans-61" transform="translate(218.75 0)"/>
      <use xlink:href="#DejaVuSans-69" transform="translate(280.029297 0)"/>
      <use xlink:href="#DejaVuSans-6e" transform="translate(307.8125 0)"/>
      <use xlink:href="#DejaVuSans-73" transform="translate(371.191406 0)"/>
      <use xlink:href="#DejaVuSans-28" transform="translate(423.291016 0)"/>
      <use xlink:href="#DejaVuSans-29" transform="translate(462.304688 0)"/>
     </g>
    </g>
    <g id="patch_20">
     <path d="M 49.45875 94.328281 
L 63.45875 94.328281 
L 63.45875 89.428281 
L 49.45875 89.428281 
z
" style="fill: #76b900; stroke: #ffffff; stroke-linejoin: miter"/>
    </g>
    <g id="text_17">
     <!-- warp_contains() -->
     <g transform="translate(69.05875 94.328281) scale(0.07 -0.07)">
      <defs>
       <path id="DejaVuSans-77" d="M 269 3500 
L 844 3500 
L 1563 769 
L 2278 3500 
L 2956 3500 
L 3675 769 
L 4391 3500 
L 4966 3500 
L 4050 0 
L 3372 0 
L 2619 2869 
L 1863 0 
L 1184 0 
L 269 3500 
z
" transform="scale(0.015625)"/>
       <path id="DejaVuSans-5f" d="M 3263 -1063 
L 3263 -1509 
L -63 -1509 
L -63 -1063 
L 3263 -1063 
z
" transform="scale(0.015625)"/>
      </defs>
      <use xlink:href="#DejaVuSans-77"/>
      <use xlink:href="#DejaVuSans-61" transform="translate(81.787109 0)"/>
      <use xlink:href="#DejaVuSans-72" transform="translate(143.066406 0)"/>
      <use xlink:href="#DejaVuSans-70" transform="translate(184.179688 0)"/>
      <use xlink:href="#DejaVuSans-5f" transform="translate(247.65625 0)"/>
      <use xlink:href="#DejaVuSans-63" transform="translate(297.65625 0)"/>
      <use xlink:href="#DejaVuSans-6f" transform="translate(352.636719 0)"/>
      <use xlink:href="#DejaVuSans-6e" transform="translate(413.818359 0)"/>
      <use xlink:href="#DejaVuSans-74" transform="translate(477.197266 0)"/>
      <use xlink:href="#DejaVuSans-61" transform="translate(516.40625 0)"/>
      <use xlink:href="#DejaVuSans-69" transform="translate(577.685547 0)"/>
      <use xlink:href="#DejaVuSans-6e" transform="translate(605.46875 0)"/>
      <use xlink:href="#DejaVuSans-73" transform="translate(668.847656 0)"/>
      <use xlink:href="#DejaVuSans-28" transform="translate(720.947266 0)"/>
      <use xlink:href="#DejaVuSans-29" transform="translate(759.960938 0)"/>
     </g>
    </g>
    <g id="patch_21">
     <path d="M 49.45875 104.797656 
L 63.45875 104.797656 
L 63.45875 99.897656 
L 49.45875 99.897656 
z
" style="fill: #ff7f0e; stroke: #ffffff; stroke-linejoin: miter"/>
    </g>
    <g id="text_18">
     <!-- warp+bloom -->
     <g transform="translate(69.05875 104.797656) scale(0.07 -0.07)">
      <defs>
       <path id="DejaVuSans-2b" d="M 2944 4013 
L 2944 2272 
L 4684 2272 
L 4684 1741 
L 2944 1741 
L 2944 0 
L 2419 0 
L 2419 1741 
L 678 1741 
L 678 2272 
L 2419 2272 
L 2419 4013 
L 2944 4013 
z
" transform="scale(0.015625)"/>
      </defs>
      <use xlink:href="#DejaVuSans-77"/>
      <use xlink:href="#DejaVuSans-61" transform="translate(81.787109 0)"/>
      <use xlink:href="#DejaVuSans-72" transform="translate(143.066406 0)"/>
      <use xlink:href="#DejaVuSans-70" transform="translate(184.179688 0)"/>
      <use xlink:href="#DejaVuSans-2b" transform="translate(247.65625 0)"/>
      <use xlink:href="#DejaVuSans-62" transform="translate(331.445312 0)"/>
      <use xlink:href="#DejaVuSans-6c" transform="translate(394.921875 0)"/>
      <use xlink:href="#DejaVuSans-6f" transform="translate(422.705078 0)"/>
      <use xlink:href="#DejaVuSans-6f" transform="translate(483.886719 0)"/>
      <use xlink:href="#DejaVuSans-6d" transform="translate(545.068359 0)"/>
     </g>
    </g>
   </g>
  </g>
  <g id="axes_2">
   <g id="patch_22">
    <path d="M 320.25375 267.608 
L 583.04875 267.608 
L 583.04875 62.16 
L 320.25375 62.16 
z
" style="fill: #ffffff"/>
   </g>
   <g id="patch_23">
    <path d="M 332.198977 267.608 
L 348.008837 267.608 
L 348.008837 243.838822 
L 332.198977 243.838822 
z
" clip-path="url(#peac4375b9a)" style="fill: #888888; stroke: #ffffff; stroke-linejoin: miter"/>
   </g>
   <g id="patch_24">
    <path d="M 420.031531 267.608 
L 435.84139 267.608 
L 435.84139 261.853868 
L 420.031531 261.853868 
z
" clip-path="url(#peac4375b9a)" style="fill: #888888; stroke: #ffffff; stroke-linejoin: miter"/>
   </g>
   <g id="patch_25">
    <path d="M 507.864084 267.608 
L 523.673944 267.608 
L 523.673944 244.227287 
L 507.864084 244.227287 
z
" clip-path="url(#peac4375b9a)" style="fill: #888888; stroke: #ffffff; stroke-linejoin: miter"/>
   </g>
   <g id="patch_26">
    <path d="M 348.008837 267.608 
L 363.818697 267.608 
L 363.818697 77.575975 
L 348.008837 77.575975 
z
" clip-path="url(#peac4375b9a)" style="fill: #1f77b4; stroke: #ffffff; stroke-linejoin: miter"/>
   </g>
   <g id="patch_27">
    <path d="M 435.84139 267.608 
L 451.65125 267.608 
L 451.65125 243.668869 
L 435.84139 243.668869 
z
" clip-path="url(#peac4375b9a)" style="fill: #1f77b4; stroke: #ffffff; stroke-linejoin: miter"/>
   </g>
   <g id="patch_28">
    <path d="M 523.673944 267.608 
L 539.483803 267.608 
L 539.483803 125.672748 
L 523.673944 125.672748 
z
" clip-path="url(#peac4375b9a)" style="fill: #1f77b4; stroke: #ffffff; stroke-linejoin: miter"/>
   </g>
   <g id="patch_29">
    <path d="M 363.818697 267.608 
L 379.628556 267.608 
L 379.628556 77.357463 
L 363.818697 77.357463 
z
" clip-path="url(#peac4375b9a)" style="fill: #76b900; stroke: #ffffff; stroke-linejoin: miter"/>
   </g>
   <g id="patch_30">
    <path d="M 451.65125 267.608 
L 467.46111 267.608 
L 467.46111 243.4018 
L 451.65125 243.4018 
z
" clip-path="url(#peac4375b9a)" style="fill: #76b900; stroke: #ffffff; stroke-linejoin: miter"/>
   </g>
   <g id="patch_31">
    <path d="M 539.483803 267.608 
L 555.293663 267.608 
L 555.293663 125.138609 
L 539.483803 125.138609 
z
" clip-path="url(#peac4375b9a)" style="fill: #76b900; stroke: #ffffff; stroke-linejoin: miter"/>
   </g>
   <g id="patch_32">
    <path d="M 379.628556 267.608 
L 395.438416 267.608 
L 395.438416 71.943238 
L 379.628556 71.943238 
z
" clip-path="url(#peac4375b9a)" style="fill: #ff7f0e; stroke: #ffffff; stroke-linejoin: miter"/>
   </g>
   <g id="patch_33">
    <path d="M 467.46111 267.608 
L 483.270969 267.608 
L 483.270969 241.896499 
L 467.46111 241.896499 
z
" clip-path="url(#peac4375b9a)" style="fill: #ff7f0e; stroke: #ffffff; stroke-linejoin: miter"/>
   </g>
   <g id="patch_34">
    <path d="M 555.293663 267.608 
L 571.103523 267.608 
L 571.103523 111.542348 
L 555.293663 111.542348 
z
" clip-path="url(#peac4375b9a)" style="fill: #ff7f0e; stroke: #ffffff; stroke-linejoin: miter"/>
   </g>
   <g id="matplotlib.axis_3">
    <g id="xtick_4">
     <g id="line2d_22">
      <g>
       <use xlink:href="#m966f1de3ac" x="363.818697" y="267.608" style="stroke: #000000; stroke-width: 0.8"/>
      </g>
     </g>
     <g id="text_19">
      <!-- Random -->
      <g transform="translate(349.32979 279.926906) scale(0.07 -0.07)">
       <use xlink:href="#DejaVuSans-52"/>
       <use xlink:href="#DejaVuSans-61" transform="translate(67.232422 0)"/>
       <use xlink:href="#DejaVuSans-6e" transform="translate(128.511719 0)"/>
       <use xlink:href="#DejaVuSans-64" transform="translate(191.890625 0)"/>
       <use xlink:href="#DejaVuSans-6f" transform="translate(255.367188 0)"/>
       <use xlink:href="#DejaVuSans-6d" transform="translate(316.548828 0)"/>
      </g>
     </g>
    </g>
    <g id="xtick_5">
     <g id="line2d_23">
      <g>
       <use xlink:href="#m966f1de3ac" x="451.65125" y="267.608" style="stroke: #000000; stroke-width: 0.8"/>
      </g>
     </g>
     <g id="text_20">
      <!-- Clustered -->
      <g transform="translate(434.932187 279.926906) scale(0.07 -0.07)">
       <use xlink:href="#DejaVuSans-43"/>
       <use xlink:href="#DejaVuSans-6c" transform="translate(69.824219 0)"/>
       <use xlink:href="#DejaVuSans-75" transform="translate(97.607422 0)"/>
       <use xlink:href="#DejaVuSans-73" transform="translate(160.986328 0)"/>
       <use xlink:href="#DejaVuSans-74" transform="translate(213.085938 0)"/>
       <use xlink:href="#DejaVuSans-65" transform="translate(252.294922 0)"/>
       <use xlink:href="#DejaVuSans-72" transform="translate(313.818359 0)"/>
       <use xlink:href="#DejaVuSans-65" transform="translate(352.681641 0)"/>
       <use xlink:href="#DejaVuSans-64" transform="translate(414.205078 0)"/>
      </g>
      <!-- (32 same-container) -->
      <g transform="translate(415.976406 287.765375) scale(0.07 -0.07)">
       <use xlink:href="#DejaVuSans-28"/>
       <use xlink:href="#DejaVuSans-33" transform="translate(39.013672 0)"/>
       <use xlink:href="#DejaVuSans-32" transform="translate(102.636719 0)"/>
       <use xlink:href="#DejaVuSans-20" transform="translate(166.259766 0)"/>
       <use xlink:href="#DejaVuSans-73" transform="translate(198.046875 0)"/>
       <use xlink:href="#DejaVuSans-61" transform="translate(250.146484 0)"/>
       <use xlink:href="#DejaVuSans-6d" transform="translate(311.425781 0)"/>
       <use xlink:href="#DejaVuSans-65" transform="translate(408.837891 0)"/>
       <use xlink:href="#DejaVuSans-2d" transform="translate(470.361328 0)"/>
       <use xlink:href="#DejaVuSans-63" transform="translate(506.445312 0)"/>
       <use xlink:href="#DejaVuSans-6f" transform="translate(561.425781 0)"/>
       <use xlink:href="#DejaVuSans-6e" transform="translate(622.607422 0)"/>
       <use xlink:href="#DejaVuSans-74" transform="translate(685.986328 0)"/>
       <use xlink:href="#DejaVuSans-61" transform="translate(725.195312 0)"/>
       <use xlink:href="#DejaVuSans-69" transform="translate(786.474609 0)"/>
       <use xlink:href="#DejaVuSans-6e" transform="translate(814.257812 0)"/>
       <use xlink:href="#DejaVuSans-65" transform="translate(877.636719 0)"/>
       <use xlink:href="#DejaVuSans-72" transform="translate(939.160156 0)"/>
       <use xlink:href="#DejaVuSans-29" transform="translate(980.273438 0)"/>
      </g>
     </g>
    </g>
    <g id="xtick_6">
     <g id="line2d_24">
      <g>
       <use xlink:href="#m966f1de3ac" x="539.483803" y="267.608" style="stroke: #000000; stroke-width: 0.8"/>
      </g>
     </g>
     <g id="text_21">
      <!-- Strided -->
      <g transform="translate(526.881069 279.926906) scale(0.07 -0.07)">
       <use xlink:href="#DejaVuSans-53"/>
       <use xlink:href="#DejaVuSans-74" transform="translate(63.476562 0)"/>
       <use xlink:href="#DejaVuSans-72" transform="translate(102.685547 0)"/>
       <use xlink:href="#DejaVuSans-69" transform="translate(143.798828 0)"/>
       <use xlink:href="#DejaVuSans-64" transform="translate(171.582031 0)"/>
       <use xlink:href="#DejaVuSans-65" transform="translate(235.058594 0)"/>
       <use xlink:href="#DejaVuSans-64" transform="translate(296.582031 0)"/>
      </g>
      <!-- (graph-like) -->
      <g transform="translate(519.246147 287.765375) scale(0.07 -0.07)">
       <use xlink:href="#DejaVuSans-28"/>
       <use xlink:href="#DejaVuSans-67" transform="translate(39.013672 0)"/>
       <use xlink:href="#DejaVuSans-72" transform="translate(102.490234 0)"/>
       <use xlink:href="#DejaVuSans-61" transform="translate(143.603516 0)"/>
       <use xlink:href="#DejaVuSans-70" transform="translate(204.882812 0)"/>
       <use xlink:href="#DejaVuSans-68" transform="translate(268.359375 0)"/>
       <use xlink:href="#DejaVuSans-2d" transform="translate(331.738281 0)"/>
       <use xlink:href="#DejaVuSans-6c" transform="translate(367.822266 0)"/>
       <use xlink:href="#DejaVuSans-69" transform="translate(395.605469 0)"/>
       <use xlink:href="#DejaVuSans-6b" transform="translate(423.388672 0)"/>
       <use xlink:href="#DejaVuSans-65" transform="translate(477.673828 0)"/>
       <use xlink:href="#DejaVuSans-29" transform="translate(539.197266 0)"/>
      </g>
     </g>
    </g>
   </g>
   <g id="matplotlib.axis_4">
    <g id="ytick_10">
     <g id="line2d_25">
      <path d="M 320.25375 267.608 
L 583.04875 267.608 
" clip-path="url(#peac4375b9a)" style="fill: none; stroke: #b0b0b0; stroke-opacity: 0.3; stroke-width: 0.8; stroke-linecap: square"/>
     </g>
     <g id="line2d_26">
      <g>
       <use xlink:href="#m971430a933" x="320.25375" y="267.608" style="stroke: #000000; stroke-width: 0.8"/>
      </g>
     </g>
    </g>
    <g id="ytick_11">
     <g id="line2d_27">
      <path d="M 320.25375 243.328963 
L 583.04875 243.328963 
" clip-path="url(#peac4375b9a)" style="fill: none; stroke: #b0b0b0; stroke-opacity: 0.3; stroke-width: 0.8; stroke-linecap: square"/>
     </g>
     <g id="line2d_28">
      <g>
       <use xlink:href="#m971430a933" x="320.25375" y="243.328963" style="stroke: #000000; stroke-width: 0.8"/>
      </g>
     </g>
    </g>
    <g id="ytick_12">
     <g id="line2d_29">
      <path d="M 320.25375 219.049925 
L 583.04875 219.049925 
" clip-path="url(#peac4375b9a)" style="fill: none; stroke: #b0b0b0; stroke-opacity: 0.3; stroke-width: 0.8; stroke-linecap: square"/>
     </g>
     <g id="line2d_30">
      <g>
       <use xlink:href="#m971430a933" x="320.25375" y="219.049925" style="stroke: #000000; stroke-width: 0.8"/>
      </g>
     </g>
    </g>
    <g id="ytick_13">
     <g id="line2d_31">
      <path d="M 320.25375 194.770888 
L 583.04875 194.770888 
" clip-path="url(#peac4375b9a)" style="fill: none; stroke: #b0b0b0; stroke-opacity: 0.3; stroke-width: 0.8; stroke-linecap: square"/>
     </g>
     <g id="line2d_32">
      <g>
       <use xlink:href="#m971430a933" x="320.25375" y="194.770888" style="stroke: #000000; stroke-width: 0.8"/>
      </g>
     </g>
    </g>
    <g id="ytick_14">
     <g id="line2d_33">
      <path d="M 320.25375 170.491851 
L 583.04875 170.491851 
" clip-path="url(#peac4375b9a)" style="fill: none; stroke: #b0b0b0; stroke-opacity: 0.3; stroke-width: 0.8; stroke-linecap: square"/>
     </g>
     <g id="line2d_34">
      <g>
       <use xlink:href="#m971430a933" x="320.25375" y="170.491851" style="stroke: #000000; stroke-width: 0.8"/>
      </g>
     </g>
    </g>
    <g id="ytick_15">
     <g id="line2d_35">
      <path d="M 320.25375 146.212813 
L 583.04875 146.212813 
" clip-path="url(#peac4375b9a)" style="fill: none; stroke: #b0b0b0; stroke-opacity: 0.3; stroke-width: 0.8; stroke-linecap: square"/>
     </g>
     <g id="line2d_36">
      <g>
       <use xlink:href="#m971430a933" x="320.25375" y="146.212813" style="stroke: #000000; stroke-width: 0.8"/>
      </g>
     </g>
    </g>
    <g id="ytick_16">
     <g id="line2d_37">
      <path d="M 320.25375 121.933776 
L 583.04875 121.933776 
" clip-path="url(#peac4375b9a)" style="fill: none; stroke: #b0b0b0; stroke-opacity: 0.3; stroke-width: 0.8; stroke-linecap: square"/>
     </g>
     <g id="line2d_38">
      <g>
       <use xlink:href="#m971430a933" x="320.25375" y="121.933776" style="stroke: #000000; stroke-width: 0.8"/>
      </g>
     </g>
    </g>
    <g id="ytick_17">
     <g id="line2d_39">
      <path d="M 320.25375 97.654739 
L 583.04875 97.654739 
" clip-path="url(#peac4375b9a)" style="fill: none; stroke: #b0b0b0; stroke-opacity: 0.3; stroke-width: 0.8; stroke-linecap: square"/>
     </g>
     <g id="line2d_40">
      <g>
       <use xlink:href="#m971430a933" x="320.25375" y="97.654739" style="stroke: #000000; stroke-width: 0.8"/>
      </g>
     </g>
    </g>
    <g id="ytick_18">
     <g id="line2d_41">
      <path d="M 320.25375 73.375701 
L 583.04875 73.375701 
" clip-path="url(#peac4375b9a)" style="fill: none; stroke: #b0b0b0; stroke-opacity: 0.3; stroke-width: 0.8; stroke-linecap: square"/>
     </g>
     <g id="line2d_42">
      <g>
       <use xlink:href="#m971430a933" x="320.25375" y="73.375701" style="stroke: #000000; stroke-width: 0.8"/>
      </g>
     </g>
    </g>
   </g>
   <g id="patch_35">
    <path d="M 320.25375 267.608 
L 320.25375 62.16 
" style="fill: none; stroke: #000000; stroke-width: 0.8; stroke-linejoin: miter; stroke-linecap: square"/>
   </g>
   <g id="patch_36">
    <path d="M 320.25375 267.608 
L 583.04875 267.608 
" style="fill: none; stroke: #000000; stroke-width: 0.8; stroke-linejoin: miter; stroke-linecap: square"/>
   </g>
   <g id="text_22">
    <!-- 1.0% density -->
    <g transform="translate(412.502187 56.16) scale(0.12 -0.12)">
     <use xlink:href="#DejaVuSans-31"/>
     <use xlink:href="#DejaVuSans-2e" transform="translate(63.623047 0)"/>
     <use xlink:href="#DejaVuSans-30" transform="translate(95.410156 0)"/>
     <use xlink:href="#DejaVuSans-25" transform="translate(159.033203 0)"/>
     <use xlink:href="#DejaVuSans-20" transform="translate(254.052734 0)"/>
     <use xlink:href="#DejaVuSans-64" transform="translate(285.839844 0)"/>
     <use xlink:href="#DejaVuSans-65" transform="translate(349.316406 0)"/>
     <use xlink:href="#DejaVuSans-6e" transform="translate(410.839844 0)"/>
     <use xlink:href="#DejaVuSans-73" transform="translate(474.21875 0)"/>
     <use xlink:href="#DejaVuSans-69" transform="translate(526.318359 0)"/>
     <use xlink:href="#DejaVuSans-74" transform="translate(554.101562 0)"/>
     <use xlink:href="#DejaVuSans-79" transform="translate(593.310547 0)"/>
    </g>
   </g>
  </g>
  <g id="axes_3">
   <g id="patch_37">
    <path d="M 597.34875 267.608 
L 860.14375 267.608 
L 860.14375 62.16 
L 597.34875 62.16 
z
" style="fill: #ffffff"/>
   </g>
   <g id="patch_38">
    <path d="M 609.293977 267.608 
L 625.103837 267.608 
L 625.103837 243.863101 
L 609.293977 243.863101 
z
" clip-path="url(#p97eefe4080)" style="fill: #888888; stroke: #ffffff; stroke-linejoin: miter"/>
   </g>
   <g id="patch_39">
    <path d="M 697.126531 267.608 
L 712.93639 267.608 
L 712.93639 261.659636 
L 697.126531 261.659636 
z
" clip-path="url(#p97eefe4080)" style="fill: #888888; stroke: #ffffff; stroke-linejoin: miter"/>
   </g>
   <g id="patch_40">
    <path d="M 784.959084 267.608 
L 800.768944 267.608 
L 800.768944 244.105892 
L 784.959084 244.105892 
z
" clip-path="url(#p97eefe4080)" style="fill: #888888; stroke: #ffffff; stroke-linejoin: miter"/>
   </g>
   <g id="patch_41">
    <path d="M 625.103837 267.608 
L 640.913697 267.608 
L 640.913697 241.993616 
L 625.103837 241.993616 
z
" clip-path="url(#p97eefe4080)" style="fill: #1f77b4; stroke: #ffffff; stroke-linejoin: miter"/>
   </g>
   <g id="patch_42">
    <path d="M 712.93639 267.608 
L 728.74625 267.608 
L 728.74625 254.254529 
L 712.93639 254.254529 
z
" clip-path="url(#p97eefe4080)" style="fill: #1f77b4; stroke: #ffffff; stroke-linejoin: miter"/>
   </g>
   <g id="patch_43">
    <path d="M 800.768944 267.608 
L 816.578803 267.608 
L 816.578803 242.770545 
L 800.768944 242.770545 
z
" clip-path="url(#p97eefe4080)" style="fill: #1f77b4; stroke: #ffffff; stroke-linejoin: miter"/>
   </g>
   <g id="patch_44">
    <path d="M 640.913697 267.608 
L 656.723556 267.608 
L 656.723556 242.236406 
L 640.913697 242.236406 
z
" clip-path="url(#p97eefe4080)" style="fill: #76b900; stroke: #ffffff; stroke-linejoin: miter"/>
   </g>
   <g id="patch_45">
    <path d="M 728.74625 267.608 
L 744.55611 267.608 
L 744.55611 253.841786 
L 728.74625 253.841786 
z
" clip-path="url(#p97eefe4080)" style="fill: #76b900; stroke: #ffffff; stroke-linejoin: miter"/>
   </g>
   <g id="patch_46">
    <path d="M 816.578803 267.608 
L 832.388663 267.608 
L 832.388663 242.527754 
L 816.578803 242.527754 
z
" clip-path="url(#p97eefe4080)" style="fill: #76b900; stroke: #ffffff; stroke-linejoin: miter"/>
   </g>
   <g id="patch_47">
    <path d="M 656.723556 267.608 
L 672.533416 267.608 
L 672.533416 241.459477 
L 656.723556 241.459477 
z
" clip-path="url(#p97eefe4080)" style="fill: #ff7f0e; stroke: #ffffff; stroke-linejoin: miter"/>
   </g>
   <g id="patch_48">
    <path d="M 744.55611 267.608 
L 760.365969 267.608 
L 760.365969 252.360765 
L 744.55611 252.360765 
z
" clip-path="url(#p97eefe4080)" style="fill: #ff7f0e; stroke: #ffffff; stroke-linejoin: miter"/>
   </g>
   <g id="patch_49">
    <path d="M 832.388663 267.608 
L 848.198523 267.608 
L 848.198523 240.852501 
L 832.388663 240.852501 
z
" clip-path="url(#p97eefe4080)" style="fill: #ff7f0e; stroke: #ffffff; stroke-linejoin: miter"/>
   </g>
   <g id="matplotlib.axis_5">
    <g id="xtick_7">
     <g id="line2d_43">
      <g>
       <use xlink:href="#m966f1de3ac" x="640.913697" y="267.608" style="stroke: #000000; stroke-width: 0.8"/>
      </g>
     </g>
     <g id="text_23">
      <!-- Random -->
      <g transform="translate(626.42479 279.926906) scale(0.07 -0.07)">
       <use xlink:href="#DejaVuSans-52"/>
       <use xlink:href="#DejaVuSans-61" transform="translate(67.232422 0)"/>
       <use xlink:href="#DejaVuSans-6e" transform="translate(128.511719 0)"/>
       <use xlink:href="#DejaVuSans-64" transform="translate(191.890625 0)"/>
       <use xlink:href="#DejaVuSans-6f" transform="translate(255.367188 0)"/>
       <use xlink:href="#DejaVuSans-6d" transform="translate(316.548828 0)"/>
      </g>
     </g>
    </g>
    <g id="xtick_8">
     <g id="line2d_44">
      <g>
       <use xlink:href="#m966f1de3ac" x="728.74625" y="267.608" style="stroke: #000000; stroke-width: 0.8"/>
      </g>
     </g>
     <g id="text_24">
      <!-- Clustered -->
      <g transform="translate(712.027187 279.926906) scale(0.07 -0.07)">
       <use xlink:href="#DejaVuSans-43"/>
       <use xlink:href="#DejaVuSans-6c" transform="translate(69.824219 0)"/>
       <use xlink:href="#DejaVuSans-75" transform="translate(97.607422 0)"/>
       <use xlink:href="#DejaVuSans-73" transform="translate(160.986328 0)"/>
       <use xlink:href="#DejaVuSans-74" transform="translate(213.085938 0)"/>
       <use xlink:href="#DejaVuSans-65" transform="translate(252.294922 0)"/>
       <use xlink:href="#DejaVuSans-72" transform="translate(313.818359 0)"/>
       <use xlink:href="#DejaVuSans-65" transform="translate(352.681641 0)"/>
       <use xlink:href="#DejaVuSans-64" transform="translate(414.205078 0)"/>
      </g>
      <!-- (32 same-container) -->
      <g transform="translate(693.071406 287.765375) scale(0.07 -0.07)">
       <use xlink:href="#DejaVuSans-28"/>
       <use xlink:href="#DejaVuSans-33" transform="translate(39.013672 0)"/>
       <use xlink:href="#DejaVuSans-32" transform="translate(102.636719 0)"/>
       <use xlink:href="#DejaVuSans-20" transform="translate(166.259766 0)"/>
       <use xlink:href="#DejaVuSans-73" transform="translate(198.046875 0)"/>
       <use xlink:href="#DejaVuSans-61" transform="translate(250.146484 0)"/>
       <use xlink:href="#DejaVuSans-6d" transform="translate(311.425781 0)"/>
       <use xlink:href="#DejaVuSans-65" transform="translate(408.837891 0)"/>
       <use xlink:href="#DejaVuSans-2d" transform="translate(470.361328 0)"/>
       <use xlink:href="#DejaVuSans-63" transform="translate(506.445312 0)"/>
       <use xlink:href="#DejaVuSans-6f" transform="translate(561.425781 0)"/>
       <use xlink:href="#DejaVuSans-6e" transform="translate(622.607422 0)"/>
       <use xlink:href="#DejaVuSans-74" transform="translate(685.986328 0)"/>
       <use xlink:href="#DejaVuSans-61" transform="translate(725.195312 0)"/>
       <use xlink:href="#DejaVuSans-69" transform="translate(786.474609 0)"/>
       <use xlink:href="#DejaVuSans-6e" transform="translate(814.257812 0)"/>
       <use xlink:href="#DejaVuSans-65" transform="translate(877.636719 0)"/>
       <use xlink:href="#DejaVuSans-72" transform="translate(939.160156 0)"/>
       <use xlink:href="#DejaVuSans-29" transform="translate(980.273438 0)"/>
      </g>
     </g>
    </g>
    <g id="xtick_9">
     <g id="line2d_45">
      <g>
       <use xlink:href="#m966f1de3ac" x="816.578803" y="267.608" style="stroke: #000000; stroke-width: 0.8"/>
      </g>
     </g>
     <g id="text_25">
      <!-- Strided -->
      <g transform="translate(803.976069 279.926906) scale(0.07 -0.07)">
       <use xlink:href="#DejaVuSans-53"/>
       <use xlink:href="#DejaVuSans-74" transform="translate(63.476562 0)"/>
       <use xlink:href="#DejaVuSans-72" transform="translate(102.685547 0)"/>
       <use xlink:href="#DejaVuSans-69" transform="translate(143.798828 0)"/>
       <use xlink:href="#DejaVuSans-64" transform="translate(171.582031 0)"/>
       <use xlink:href="#DejaVuSans-65" transform="translate(235.058594 0)"/>
       <use xlink:href="#DejaVuSans-64" transform="translate(296.582031 0)"/>
      </g>
      <!-- (graph-like) -->
      <g transform="translate(796.341147 287.765375) scale(0.07 -0.07)">
       <use xlink:href="#DejaVuSans-28"/>
       <use xlink:href="#DejaVuSans-67" transform="translate(39.013672 0)"/>
       <use xlink:href="#DejaVuSans-72" transform="translate(102.490234 0)"/>
       <use xlink:href="#DejaVuSans-61" transform="translate(143.603516 0)"/>
       <use xlink:href="#DejaVuSans-70" transform="translate(204.882812 0)"/>
       <use xlink:href="#DejaVuSans-68" transform="translate(268.359375 0)"/>
       <use xlink:href="#DejaVuSans-2d" transform="translate(331.738281 0)"/>
       <use xlink:href="#DejaVuSans-6c" transform="translate(367.822266 0)"/>
       <use xlink:href="#DejaVuSans-69" transform="translate(395.605469 0)"/>
       <use xlink:href="#DejaVuSans-6b" transform="translate(423.388672 0)"/>
       <use xlink:href="#DejaVuSans-65" transform="translate(477.673828 0)"/>
       <use xlink:href="#DejaVuSans-29" transform="translate(539.197266 0)"/>
      </g>
     </g>
    </g>
   </g>
   <g id="matplotlib.axis_6">
    <g id="ytick_19">
     <g id="line2d_46">
      <path d="M 597.34875 267.608 
L 860.14375 267.608 
" clip-path="url(#p97eefe4080)" style="fill: none; stroke: #b0b0b0; stroke-opacity: 0.3; stroke-width: 0.8; stroke-linecap: square"/>
     </g>
     <g id="line2d_47">
      <g>
       <use xlink:href="#m971430a933" x="597.34875" y="267.608" style="stroke: #000000; stroke-width: 0.8"/>
      </g>
     </g>
    </g>
    <g id="ytick_20">
     <g id="line2d_48">
      <path d="M 597.34875 243.328963 
L 860.14375 243.328963 
" clip-path="url(#p97eefe4080)" style="fill: none; stroke: #b0b0b0; stroke-opacity: 0.3; stroke-width: 0.8; stroke-linecap: square"/>
     </g>
     <g id="line2d_49">
      <g>
       <use xlink:href="#m971430a933" x="597.34875" y="243.328963" style="stroke: #000000; stroke-width: 0.8"/>
      </g>
     </g>
    </g>
    <g id="ytick_21">
     <g id="line2d_50">
      <path d="M 597.34875 219.049925 
L 860.14375 219.049925 
" clip-path="url(#p97eefe4080)" style="fill: none; stroke: #b0b0b0; stroke-opacity: 0.3; stroke-width: 0.8; stroke-linecap: square"/>
     </g>
     <g id="line2d_51">
      <g>
       <use xlink:href="#m971430a933" x="597.34875" y="219.049925" style="stroke: #000000; stroke-width: 0.8"/>
      </g>
     </g>
    </g>
    <g id="ytick_22">
     <g id="line2d_52">
      <path d="M 597.34875 194.770888 
L 860.14375 194.770888 
" clip-path="url(#p97eefe4080)" style="fill: none; stroke: #b0b0b0; stroke-opacity: 0.3; stroke-width: 0.8; stroke-linecap: square"/>
     </g>
     <g id="line2d_53">
      <g>
       <use xlink:href="#m971430a933" x="597.34875" y="194.770888" style="stroke: #000000; stroke-width: 0.8"/>
      </g>
     </g>
    </g>
    <g id="ytick_23">
     <g id="line2d_54">
      <path d="M 597.34875 170.491851 
L 860.14375 170.491851 
" clip-path="url(#p97eefe4080)" style="fill: none; stroke: #b0b0b0; stroke-opacity: 0.3; stroke-width: 0.8; stroke-linecap: square"/>
     </g>
     <g id="line2d_55">
      <g>
       <use xlink:href="#m971430a933" x="597.34875" y="170.491851" style="stroke: #000000; stroke-width: 0.8"/>
      </g>
     </g>
    </g>
    <g id="ytick_24">
     <g id="line2d_56">
      <path d="M 597.34875 146.212813 
L 860.14375 146.212813 
" clip-path="url(#p97eefe4080)" style="fill: none; stroke: #b0b0b0; stroke-opacity: 0.3; stroke-width: 0.8; stroke-linecap: square"/>
     </g>
     <g id="line2d_57">
      <g>
       <use xlink:href="#m971430a933" x="597.34875" y="146.212813" style="stroke: #000000; stroke-width: 0.8"/>
      </g>
     </g>
    </g>
    <g id="ytick_25">
     <g id="line2d_58">
      <path d="M 597.34875 121.933776 
L 860.14375 121.933776 
" clip-path="url(#p97eefe4080)" style="fill: none; stroke: #b0b0b0; stroke-opacity: 0.3; stroke-width: 0.8; stroke-linecap: square"/>
     </g>
     <g id="line2d_59">
      <g>
       <use xlink:href="#m971430a933" x="597.34875" y="121.933776" style="stroke: #000000; stroke-width: 0.8"/>
      </g>
     </g>
    </g>
    <g id="ytick_26">
     <g id="line2d_60">
      <path d="M 597.34875 97.654739 
L 860.14375 97.654739 
" clip-path="url(#p97eefe4080)" style="fill: none; stroke: #b0b0b0; stroke-opacity: 0.3; stroke-width: 0.8; stroke-linecap: square"/>
     </g>
     <g id="line2d_61">
      <g>
       <use xlink:href="#m971430a933" x="597.34875" y="97.654739" style="stroke: #000000; stroke-width: 0.8"/>
      </g>
     </g>
    </g>
    <g id="ytick_27">
     <g id="line2d_62">
      <path d="M 597.34875 73.375701 
L 860.14375 73.375701 
" clip-path="url(#p97eefe4080)" style="fill: none; stroke: #b0b0b0; stroke-opacity: 0.3; stroke-width: 0.8; stroke-linecap: square"/>
     </g>
     <g id="line2d_63">
      <g>
       <use xlink:href="#m971430a933" x="597.34875" y="73.375701" style="stroke: #000000; stroke-width: 0.8"/>
      </g>
     </g>
    </g>
   </g>
   <g id="patch_50">
    <path d="M 597.34875 267.608 
L 597.34875 62.16 
" style="fill: none; stroke: #000000; stroke-width: 0.8; stroke-linejoin: miter; stroke-linecap: square"/>
   </g>
   <g id="patch_51">
    <path d="M 597.34875 267.608 
L 860.14375 267.608 
" style="fill: none; stroke: #000000; stroke-width: 0.8; stroke-linejoin: miter; stroke-linecap: square"/>
   </g>
   <g id="text_26">
    <!-- 10.0% density -->
    <g transform="translate(685.779687 56.16) scale(0.12 -0.12)">
     <use xlink:href="#DejaVuSans-31"/>
     <use xlink:href="#DejaVuSans-30" transform="translate(63.623047 0)"/>
     <use xlink:href="#DejaVuSans-2e" transform="translate(127.246094 0)"/>
     <use xlink:href="#DejaVuSans-30" transform="translate(159.033203 0)"/>
     <use xlink:href="#DejaVuSans-25" transform="translate(222.65625 0)"/>
     <use xlink:href="#DejaVuSans-20" transform="translate(317.675781 0)"/>
     <use xlink:href="#DejaVuSans-64" transform="translate(349.462891 0)"/>
     <use xlink:href="#DejaVuSans-65" transform="translate(412.939453 0)"/>
     <use xlink:href="#DejaVuSans-6e" transform="translate(474.462891 0)"/>
     <use xlink:href="#DejaVuSans-73" transform="translate(537.841797 0)"/>
     <use xlink:href="#DejaVuSans-69" transform="translate(589.941406 0)"/>
     <use xlink:href="#DejaVuSans-74" transform="translate(617.724609 0)"/>
     <use xlink:href="#DejaVuSans-79" transform="translate(656.933594 0)"/>
    </g>
   </g>
  </g>
  <g id="axes_4">
   <g id="patch_52">
    <path d="M 874.44375 267.608 
L 1137.23875 267.608 
L 1137.23875 62.16 
L 874.44375 62.16 
z
" style="fill: #ffffff"/>
   </g>
   <g id="patch_53">
    <path d="M 886.388977 267.608 
L 902.198837 267.608 
L 902.198837 243.863101 
L 886.388977 243.863101 
z
" clip-path="url(#pf820d92a66)" style="fill: #888888; stroke: #ffffff; stroke-linejoin: miter"/>
   </g>
   <g id="patch_54">
    <path d="M 974.221531 267.608 
L 990.03139 267.608 
L 990.03139 261.732473 
L 974.221531 261.732473 
z
" clip-path="url(#pf820d92a66)" style="fill: #888888; stroke: #ffffff; stroke-linejoin: miter"/>
   </g>
   <g id="patch_55">
    <path d="M 1062.054084 267.608 
L 1077.863944 267.608 
L 1077.863944 244.008776 
L 1062.054084 244.008776 
z
" clip-path="url(#pf820d92a66)" style="fill: #888888; stroke: #ffffff; stroke-linejoin: miter"/>
   </g>
   <g id="patch_56">
    <path d="M 902.198837 267.608 
L 918.008697 267.608 
L 918.008697 242.187848 
L 902.198837 242.187848 
z
" clip-path="url(#pf820d92a66)" style="fill: #1f77b4; stroke: #ffffff; stroke-linejoin: miter"/>
   </g>
   <g id="patch_57">
    <path d="M 990.03139 267.608 
L 1005.84125 267.608 
L 1005.84125 254.108855 
L 990.03139 254.108855 
z
" clip-path="url(#pf820d92a66)" style="fill: #1f77b4; stroke: #ffffff; stroke-linejoin: miter"/>
   </g>
   <g id="patch_58">
    <path d="M 1077.863944 267.608 
L 1093.673803 267.608 
L 1093.673803 242.503475 
L 1077.863944 242.503475 
z
" clip-path="url(#pf820d92a66)" style="fill: #1f77b4; stroke: #ffffff; stroke-linejoin: miter"/>
   </g>
   <g id="patch_59">
    <path d="M 918.008697 267.608 
L 933.818556 267.608 
L 933.818556 242.042174 
L 918.008697 242.042174 
z
" clip-path="url(#pf820d92a66)" style="fill: #76b900; stroke: #ffffff; stroke-linejoin: miter"/>
   </g>
   <g id="patch_60">
    <path d="M 1005.84125 267.608 
L 1021.65111 267.608 
L 1021.65111 253.671833 
L 1005.84125 253.671833 
z
" clip-path="url(#pf820d92a66)" style="fill: #76b900; stroke: #ffffff; stroke-linejoin: miter"/>
   </g>
   <g id="patch_61">
    <path d="M 1093.673803 267.608 
L 1109.483663 267.608 
L 1109.483663 242.479196 
L 1093.673803 242.479196 
z
" clip-path="url(#pf820d92a66)" style="fill: #76b900; stroke: #ffffff; stroke-linejoin: miter"/>
   </g>
   <g id="patch_62">
    <path d="M 933.818556 267.608 
L 949.628416 267.608 
L 949.628416 241.022454 
L 933.818556 241.022454 
z
" clip-path="url(#pf820d92a66)" style="fill: #ff7f0e; stroke: #ffffff; stroke-linejoin: miter"/>
   </g>
   <g id="patch_63">
    <path d="M 1021.65111 267.608 
L 1037.460969 267.608 
L 1037.460969 252.360765 
L 1021.65111 252.360765 
z
" clip-path="url(#pf820d92a66)" style="fill: #ff7f0e; stroke: #ffffff; stroke-linejoin: miter"/>
   </g>
   <g id="patch_64">
    <path d="M 1109.483663 267.608 
L 1125.293523 267.608 
L 1125.293523 240.901059 
L 1109.483663 240.901059 
z
" clip-path="url(#pf820d92a66)" style="fill: #ff7f0e; stroke: #ffffff; stroke-linejoin: miter"/>
   </g>
   <g id="matplotlib.axis_7">
    <g id="xtick_10">
     <g id="line2d_64">
      <g>
       <use xlink:href="#m966f1de3ac" x="918.008697" y="267.608" style="stroke: #000000; stroke-width: 0.8"/>
      </g>
     </g>
     <g id="text_27">
      <!-- Random -->
      <g transform="translate(903.51979 279.926906) scale(0.07 -0.07)">
       <use xlink:href="#DejaVuSans-52"/>
       <use xlink:href="#DejaVuSans-61" transform="translate(67.232422 0)"/>
       <use xlink:href="#DejaVuSans-6e" transform="translate(128.511719 0)"/>
       <use xlink:href="#DejaVuSans-64" transform="translate(191.890625 0)"/>
       <use xlink:href="#DejaVuSans-6f" transform="translate(255.367188 0)"/>
       <use xlink:href="#DejaVuSans-6d" transform="translate(316.548828 0)"/>
      </g>
     </g>
    </g>
    <g id="xtick_11">
     <g id="line2d_65">
      <g>
       <use xlink:href="#m966f1de3ac" x="1005.84125" y="267.608" style="stroke: #000000; stroke-width: 0.8"/>
      </g>
     </g>
     <g id="text_28">
      <!-- Clustered -->
      <g transform="translate(989.122187 279.926906) scale(0.07 -0.07)">
       <use xlink:href="#DejaVuSans-43"/>
       <use xlink:href="#DejaVuSans-6c" transform="translate(69.824219 0)"/>
       <use xlink:href="#DejaVuSans-75" transform="translate(97.607422 0)"/>
       <use xlink:href="#DejaVuSans-73" transform="translate(160.986328 0)"/>
       <use xlink:href="#DejaVuSans-74" transform="translate(213.085938 0)"/>
       <use xlink:href="#DejaVuSans-65" transform="translate(252.294922 0)"/>
       <use xlink:href="#DejaVuSans-72" transform="translate(313.818359 0)"/>
       <use xlink:href="#DejaVuSans-65" transform="translate(352.681641 0)"/>
       <use xlink:href="#DejaVuSans-64" transform="translate(414.205078 0)"/>
      </g>
      <!-- (32 same-container) -->
      <g transform="translate(970.166406 287.765375) scale(0.07 -0.07)">
       <use xlink:href="#DejaVuSans-28"/>
       <use xlink:href="#DejaVuSans-33" transform="translate(39.013672 0)"/>
       <use xlink:href="#DejaVuSans-32" transform="translate(102.636719 0)"/>
       <use xlink:href="#DejaVuSans-20" transform="translate(166.259766 0)"/>
       <use xlink:href="#DejaVuSans-73" transform="translate(198.046875 0)"/>
       <use xlink:href="#DejaVuSans-61" transform="translate(250.146484 0)"/>
       <use xlink:href="#DejaVuSans-6d" transform="translate(311.425781 0)"/>
       <use xlink:href="#DejaVuSans-65" transform="translate(408.837891 0)"/>
       <use xlink:href="#DejaVuSans-2d" transform="translate(470.361328 0)"/>
       <use xlink:href="#DejaVuSans-63" transform="translate(506.445312 0)"/>
       <use xlink:href="#DejaVuSans-6f" transform="translate(561.425781 0)"/>
       <use xlink:href="#DejaVuSans-6e" transform="translate(622.607422 0)"/>
       <use xlink:href="#DejaVuSans-74" transform="translate(685.986328 0)"/>
       <use xlink:href="#DejaVuSans-61" transform="translate(725.195312 0)"/>
       <use xlink:href="#DejaVuSans-69" transform="translate(786.474609 0)"/>
       <use xlink:href="#DejaVuSans-6e" transform="translate(814.257812 0)"/>
       <use xlink:href="#DejaVuSans-65" transform="translate(877.636719 0)"/>
       <use xlink:href="#DejaVuSans-72" transform="translate(939.160156 0)"/>
       <use xlink:href="#DejaVuSans-29" transform="translate(980.273438 0)"/>
      </g>
     </g>
    </g>
    <g id="xtick_12">
     <g id="line2d_66">
      <g>
       <use xlink:href="#m966f1de3ac" x="1093.673803" y="267.608" style="stroke: #000000; stroke-width: 0.8"/>
      </g>
     </g>
     <g id="text_29">
      <!-- Strided -->
      <g transform="translate(1081.071069 279.926906) scale(0.07 -0.07)">
       <use xlink:href="#DejaVuSans-53"/>
       <use xlink:href="#DejaVuSans-74" transform="translate(63.476562 0)"/>
       <use xlink:href="#DejaVuSans-72" transform="translate(102.685547 0)"/>
       <use xlink:href="#DejaVuSans-69" transform="translate(143.798828 0)"/>
       <use xlink:href="#DejaVuSans-64" transform="translate(171.582031 0)"/>
       <use xlink:href="#DejaVuSans-65" transform="translate(235.058594 0)"/>
       <use xlink:href="#DejaVuSans-64" transform="translate(296.582031 0)"/>
      </g>
      <!-- (graph-like) -->
      <g transform="translate(1073.436147 287.765375) scale(0.07 -0.07)">
       <use xlink:href="#DejaVuSans-28"/>
       <use xlink:href="#DejaVuSans-67" transform="translate(39.013672 0)"/>
       <use xlink:href="#DejaVuSans-72" transform="translate(102.490234 0)"/>
       <use xlink:href="#DejaVuSans-61" transform="translate(143.603516 0)"/>
       <use xlink:href="#DejaVuSans-70" transform="translate(204.882812 0)"/>
       <use xlink:href="#DejaVuSans-68" transform="translate(268.359375 0)"/>
       <use xlink:href="#DejaVuSans-2d" transform="translate(331.738281 0)"/>
       <use xlink:href="#DejaVuSans-6c" transform="translate(367.822266 0)"/>
       <use xlink:href="#DejaVuSans-69" transform="translate(395.605469 0)"/>
       <use xlink:href="#DejaVuSans-6b" transform="translate(423.388672 0)"/>
       <use xlink:href="#DejaVuSans-65" transform="translate(477.673828 0)"/>
       <use xlink:href="#DejaVuSans-29" transform="translate(539.197266 0)"/>
      </g>
     </g>
    </g>
   </g>
   <g id="matplotlib.axis_8">
    <g id="ytick_28">
     <g id="line2d_67">
      <path d="M 874.44375 267.608 
L 1137.23875 267.608 
" clip-path="url(#pf820d92a66)" style="fill: none; stroke: #b0b0b0; stroke-opacity: 0.3; stroke-width: 0.8; stroke-linecap: square"/>
     </g>
     <g id="line2d_68">
      <g>
       <use xlink:href="#m971430a933" x="874.44375" y="267.608" style="stroke: #000000; stroke-width: 0.8"/>
      </g>
     </g>
    </g>
    <g id="ytick_29">
     <g id="line2d_69">
      <path d="M 874.44375 243.328963 
L 1137.23875 243.328963 
" clip-path="url(#pf820d92a66)" style="fill: none; stroke: #b0b0b0; stroke-opacity: 0.3; stroke-width: 0.8; stroke-linecap: square"/>
     </g>
     <g id="line2d_70">
      <g>
       <use xlink:href="#m971430a933" x="874.44375" y="243.328963" style="stroke: #000000; stroke-width: 0.8"/>
      </g>
     </g>
    </g>
    <g id="ytick_30">
     <g id="line2d_71">
      <path d="M 874.44375 219.049925 
L 1137.23875 219.049925 
" clip-path="url(#pf820d92a66)" style="fill: none; stroke: #b0b0b0; stroke-opacity: 0.3; stroke-width: 0.8; stroke-linecap: square"/>
     </g>
     <g id="line2d_72">
      <g>
       <use xlink:href="#m971430a933" x="874.44375" y="219.049925" style="stroke: #000000; stroke-width: 0.8"/>
      </g>
     </g>
    </g>
    <g id="ytick_31">
     <g id="line2d_73">
      <path d="M 874.44375 194.770888 
L 1137.23875 194.770888 
" clip-path="url(#pf820d92a66)" style="fill: none; stroke: #b0b0b0; stroke-opacity: 0.3; stroke-width: 0.8; stroke-linecap: square"/>
     </g>
     <g id="line2d_74">
      <g>
       <use xlink:href="#m971430a933" x="874.44375" y="194.770888" style="stroke: #000000; stroke-width: 0.8"/>
      </g>
     </g>
    </g>
    <g id="ytick_32">
     <g id="line2d_75">
      <path d="M 874.44375 170.491851 
L 1137.23875 170.491851 
" clip-path="url(#pf820d92a66)" style="fill: none; stroke: #b0b0b0; stroke-opacity: 0.3; stroke-width: 0.8; stroke-linecap: square"/>
     </g>
     <g id="line2d_76">
      <g>
       <use xlink:href="#m971430a933" x="874.44375" y="170.491851" style="stroke: #000000; stroke-width: 0.8"/>
      </g>
     </g>
    </g>
    <g id="ytick_33">
     <g id="line2d_77">
      <path d="M 874.44375 146.212813 
L 1137.23875 146.212813 
" clip-path="url(#pf820d92a66)" style="fill: none; stroke: #b0b0b0; stroke-opacity: 0.3; stroke-width: 0.8; stroke-linecap: square"/>
     </g>
     <g id="line2d_78">
      <g>
       <use xlink:href="#m971430a933" x="874.44375" y="146.212813" style="stroke: #000000; stroke-width: 0.8"/>
      </g>
     </g>
    </g>
    <g id="ytick_34">
     <g id="line2d_79">
      <path d="M 874.44375 121.933776 
L 1137.23875 121.933776 
" clip-path="url(#pf820d92a66)" style="fill: none; stroke: #b0b0b0; stroke-opacity: 0.3; stroke-width: 0.8; stroke-linecap: square"/>
     </g>
     <g id="line2d_80">
      <g>
       <use xlink:href="#m971430a933" x="874.44375" y="121.933776" style="stroke: #000000; stroke-width: 0.8"/>
      </g>
     </g>
    </g>
    <g id="ytick_35">
     <g id="line2d_81">
      <path d="M 874.44375 97.654739 
L 1137.23875 97.654739 
" clip-path="url(#pf820d92a66)" style="fill: none; stroke: #b0b0b0; stroke-opacity: 0.3; stroke-width: 0.8; stroke-linecap: square"/>
     </g>
     <g id="line2d_82">
      <g>
       <use xlink:href="#m971430a933" x="874.44375" y="97.654739" style="stroke: #000000; stroke-width: 0.8"/>
      </g>
     </g>
    </g>
    <g id="ytick_36">
     <g id="line2d_83">
      <path d="M 874.44375 73.375701 
L 1137.23875 73.375701 
" clip-path="url(#pf820d92a66)" style="fill: none; stroke: #b0b0b0; stroke-opacity: 0.3; stroke-width: 0.8; stroke-linecap: square"/>
     </g>
     <g id="line2d_84">
      <g>
       <use xlink:href="#m971430a933" x="874.44375" y="73.375701" style="stroke: #000000; stroke-width: 0.8"/>
      </g>
     </g>
    </g>
   </g>
   <g id="patch_65">
    <path d="M 874.44375 267.608 
L 874.44375 62.16 
" style="fill: none; stroke: #000000; stroke-width: 0.8; stroke-linejoin: miter; stroke-linecap: square"/>
   </g>
   <g id="patch_66">
    <path d="M 874.44375 267.608 
L 1137.23875 267.608 
" style="fill: none; stroke: #000000; stroke-width: 0.8; stroke-linejoin: miter; stroke-linecap: square"/>
   </g>
   <g id="text_30">
    <!-- 50.0% density -->
    <g transform="translate(962.874687 56.16) scale(0.12 -0.12)">
     <use xlink:href="#DejaVuSans-35"/>
     <use xlink:href="#DejaVuSans-30" transform="translate(63.623047 0)"/>
     <use xlink:href="#DejaVuSans-2e" transform="translate(127.246094 0)"/>
     <use xlink:href="#DejaVuSans-30" transform="translate(159.033203 0)"/>
     <use xlink:href="#DejaVuSans-25" transform="translate(222.65625 0)"/>
     <use xlink:href="#DejaVuSans-20" transform="translate(317.675781 0)"/>
     <use xlink:href="#DejaVuSans-64" transform="translate(349.462891 0)"/>
     <use xlink:href="#DejaVuSans-65" transform="translate(412.939453 0)"/>
     <use xlink:href="#DejaVuSans-6e" transform="translate(474.462891 0)"/>
     <use xlink:href="#DejaVuSans-73" transform="translate(537.841797 0)"/>
     <use xlink:href="#DejaVuSans-69" transform="translate(589.941406 0)"/>
     <use xlink:href="#DejaVuSans-74" transform="translate(617.724609 0)"/>
     <use xlink:href="#DejaVuSans-79" transform="translate(656.933594 0)"/>
    </g>
   </g>
  </g>
  <g id="text_31">
   <!-- Access Pattern Impact — 100M Universe -->
   <g transform="translate(440.490938 17.077969) scale(0.13 -0.13)">
    <defs>
     <path id="DejaVuSans-41" d="M 2188 4044 
L 1331 1722 
L 3047 1722 
L 2188 4044 
z
M 1831 4666 
L 2547 4666 
L 4325 0 
L 3669 0 
L 3244 1197 
L 1141 1197 
L 716 0 
L 50 0 
L 1831 4666 
z
" transform="scale(0.015625)"/>
     <path id="DejaVuSans-50" d="M 1259 4147 
L 1259 2394 
L 2053 2394 
Q 2494 2394 2734 2622 
Q 2975 2850 2975 3272 
Q 2975 3691 2734 3919 
Q 2494 4147 2053 4147 
L 1259 4147 
z
M 628 4666 
L 2053 4666 
Q 2838 4666 3239 4311 
Q 3641 3956 3641 3272 
Q 3641 2581 3239 2228 
Q 2838 1875 2053 1875 
L 1259 1875 
L 1259 0 
L 628 0 
L 628 4666 
z
" transform="scale(0.015625)"/>
     <path id="DejaVuSans-49" d="M 628 4666 
L 1259 4666 
L 1259 0 
L 628 0 
L 628 4666 
z
" transform="scale(0.015625)"/>
     <path id="DejaVuSans-55" d="M 556 4666 
L 1191 4666 
L 1191 1831 
Q 1191 1081 1462 751 
Q 1734 422 2344 422 
Q 2950 422 3222 751 
Q 3494 1081 3494 1831 
L 3494 4666 
L 4128 4666 
L 4128 1753 
Q 4128 841 3676 375 
Q 3225 -91 2344 -91 
Q 1459 -91 1007 375 
Q 556 841 556 1753 
L 556 4666 
z
" transform="scale(0.015625)"/>
     <path id="DejaVuSans-76" d="M 191 3500 
L 800 3500 
L 1894 563 
L 2988 3500 
L 3597 3500 
L 2284 0 
L 1503 0 
L 191 3500 
z
" transform="scale(0.015625)"/>
    </defs>
    <use xlink:href="#DejaVuSans-41"/>
    <use xlink:href="#DejaVuSans-63" transform="translate(66.658203 0)"/>
    <use xlink:href="#DejaVuSans-63" transform="translate(121.638672 0)"/>
    <use xlink:href="#DejaVuSans-65" transform="translate(176.619141 0)"/>
    <use xlink:href="#DejaVuSans-73" transform="translate(238.142578 0)"/>
    <use xlink:href="#DejaVuSans-73" transform="translate(290.242188 0)"/>
    <use xlink:href="#DejaVuSans-20" transform="translate(342.341797 0)"/>
    <use xlink:href="#DejaVuSans-50" transform="translate(374.128906 0)"/>
    <use xlink:href="#DejaVuSans-61" transform="translate(429.931641 0)"/>
    <use xlink:href="#DejaVuSans-74" transform="translate(491.210938 0)"/>
    <use xlink:href="#DejaVuSans-74" transform="translate(530.419922 0)"/>
    <use xlink:href="#DejaVuSans-65" transform="translate(569.628906 0)"/>
    <use xlink:href="#DejaVuSans-72" transform="translate(631.152344 0)"/>
    <use xlink:href="#DejaVuSans-6e" transform="translate(670.515625 0)"/>
    <use xlink:href="#DejaVuSans-20" transform="translate(733.894531 0)"/>
    <use xlink:href="#DejaVuSans-49" transform="translate(765.681641 0)"/>
    <use xlink:href="#DejaVuSans-6d" transform="translate(795.173828 0)"/>
    <use xlink:href="#DejaVuSans-70" transform="translate(892.585938 0)"/>
    <use xlink:href="#DejaVuSans-61" transform="translate(956.0625 0)"/>
    <use xlink:href="#DejaVuSans-63" transform="translate(1017.341797 0)"/>
    <use xlink:href="#DejaVuSans-74" transform="translate(1072.322266 0)"/>
    <use xlink:href="#DejaVuSans-20" transform="translate(1111.53125 0)"/>
    <use xlink:href="#DejaVuSans-2014" transform="translate(1143.318359 0)"/>
    <use xlink:href="#DejaVuSans-20" transform="translate(1243.318359 0)"/>
    <use xlink:href="#DejaVuSans-31" transform="translate(1275.105469 0)"/>
    <use xlink:href="#DejaVuSans-30" transform="translate(1338.728516 0)"/>
    <use xlink:href="#DejaVuSans-30" transform="translate(1402.351562 0)"/>
    <use xlink:href="#DejaVuSans-4d" transform="translate(1465.974609 0)"/>
    <use xlink:href="#DejaVuSans-20" transform="translate(1552.253906 0)"/>
    <use xlink:href="#DejaVuSans-55" transform="translate(1584.041016 0)"/>
    <use xlink:href="#DejaVuSans-6e" transform="translate(1657.234375 0)"/>
    <use xlink:href="#DejaVuSans-69" transform="translate(1720.613281 0)"/>
    <use xlink:href="#DejaVuSans-76" transform="translate(1748.396484 0)"/>
    <use xlink:href="#DejaVuSans-65" transform="translate(1807.576172 0)"/>
    <use xlink:href="#DejaVuSans-72" transform="translate(1869.099609 0)"/>
    <use xlink:href="#DejaVuSans-73" transform="translate(1910.212891 0)"/>
    <use xlink:href="#DejaVuSans-65" transform="translate(1962.3125 0)"/>
   </g>
  </g>
 </g>
 <defs>
  <clipPath id="p2366828dd3">
   <rect x="43.15875" y="62.16" width="262.795" height="205.448"/>
  </clipPath>
  <clipPath id="peac4375b9a">
   <rect x="320.25375" y="62.16" width="262.795" height="205.448"/>
  </clipPath>
  <clipPath id="p97eefe4080">
   <rect x="597.34875" y="62.16" width="262.795" height="205.448"/>
  </clipPath>
  <clipPath id="pf820d92a66">
   <rect x="874.44375" y="62.16" width="262.795" height="205.448"/>
  </clipPath>
 </defs>
</svg>
